<svg width="417" height="58" viewBox="0 0 417 58" fill="none" xmlns="http://www.w3.org/2000/svg">
    <path fill-rule="evenodd" clip-rule="evenodd" d="M98.6534 9.94822C51.2255 15.64 27.0253 21.6702 20.0029 29.5771C18.5985 31.2077 16.8701 32.1922 13.4129 33.4229C-7.33008 40.8375 -3.76482 48.929 22.38 53.8824C49.9292 59.0819 127.391 59.3896 210.363 54.6208C222.247 53.944 241.478 52.9594 253.037 52.4672C397.05 46.2832 445.126 28.1618 401.479 15.6707C374.902 8.04071 335.685 4.77951 270.323 4.65645C208.094 4.56415 125.446 11.9173 65.9184 22.0394C50.3611 24.6853 48.5246 23.6392 53.0622 22.2855C69.0515 17.4859 112.158 11.2404 157.209 7.45617C197.399 4.07188 215.981 2.68741 246.123 2.62588C257.899 2.59512 264.705 0.287648 246.555 0.0107521C227.325 -0.235378 150.187 3.76421 98.6534 9.94822ZM388.299 32.9921C369.176 39.8222 325.097 44.8987 253.686 48.4368C15.0333 60.251 33.8316 34.6843 33.8316 34.6843C34.0477 34.6535 109.133 13.5171 256.927 8.37915C329.635 5.82555 445.558 12.5326 388.299 32.9921ZM103.299 53.7286C127.931 54.6823 98.9775 54.8669 62.4613 54.0055C-5.6016 52.4056 14.061 41.2375 20.3271 39.3915C40.6379 47.7292 68.8355 52.4056 103.299 53.7286Z" fill="#13EC50"/>
</svg>
