<svg width="172" height="30" viewBox="0 0 172 30" fill="none" xmlns="http://www.w3.org/2000/svg">
    <path d="M13.4848 6.74291C13.4848 10.4666 10.4662 13.4853 6.74242 13.4853C3.01869 13.4853 0 10.4666 0 6.74291C0 3.01917 3.01869 0.000488281 6.74242 0.000488281C10.4662 0.000488281 13.4848 3.01917 13.4848 6.74291ZM3.37121 6.74291C3.37121 8.60478 4.88055 10.1141 6.74242 10.1141C8.60429 10.1141 10.1136 8.60478 10.1136 6.74291C10.1136 4.88104 8.60429 3.3717 6.74242 3.3717C4.88055 3.3717 3.37121 4.88104 3.37121 6.74291Z" fill="white"/>
    <path d="M29.1138 6.74242C29.1138 10.4662 26.0951 13.4848 22.3713 13.4848C18.6476 13.4848 15.6289 10.4662 15.6289 6.74242C15.6289 3.01869 18.6476 0 22.3713 0C26.0951 0 29.1138 3.01869 29.1138 6.74242ZM19.0001 6.74242C19.0001 8.60429 20.5095 10.1136 22.3713 10.1136C24.2332 10.1136 25.7425 8.60429 25.7425 6.74242C25.7425 4.88055 24.2332 3.37121 22.3713 3.37121C20.5095 3.37121 19.0001 4.88055 19.0001 6.74242Z" fill="white"/>
    <rect x="0.306641" y="14.7109" width="13.1784" height="13.1784" rx="4.66864" fill="white"/>
    <path d="M28.5029 25.7903V16.5031C28.5029 14.9449 26.9743 13.9314 25.6751 14.6283L17.0176 19.2719C15.5774 20.0444 15.5775 22.2491 17.0176 23.0216L25.6751 27.6651C26.9743 28.362 28.5029 27.3485 28.5029 25.7903Z" fill="#13EC50"/>
    <path d="M55.7104 24.3998H54.042C52.4439 24.3998 50.9374 23.6538 49.9687 22.3828L44.8952 15.7264V24.3998H41.2461V5.88962H44.8952V14.0605L49.7037 7.86959C50.6739 6.62043 52.1669 5.88962 53.7486 5.88962H55.446L48.5973 14.8803L55.7104 24.3998Z" fill="white"/>
    <path d="M59.8418 9.59165C59.2776 9.59165 58.784 9.38892 58.3609 8.98346C57.9555 8.56037 57.7528 8.06677 57.7528 7.50265C57.7528 6.93853 57.9555 6.44493 58.3609 6.02184C58.784 5.59875 59.2776 5.38721 59.8418 5.38721C60.4235 5.38721 60.9171 5.59875 61.3226 6.02184C61.7456 6.44493 61.9572 6.93853 61.9572 7.50265C61.9572 8.06677 61.7456 8.56037 61.3226 8.98346C60.9171 9.38892 60.4235 9.59165 59.8418 9.59165ZM58.1494 24.3998V11.1782H61.5605V24.3998H58.1494Z" fill="white"/>
    <path d="M72.8271 10.808C74.2727 10.808 75.4626 11.2928 76.397 12.2624C77.3489 13.232 77.8249 14.5718 77.8249 16.2817V24.3998H74.4137V16.7048C74.4137 15.8234 74.1757 15.1535 73.6998 14.6952C73.2238 14.2192 72.5892 13.9812 71.7959 13.9812C70.9144 13.9812 70.2093 14.2544 69.6804 14.8009C69.1516 15.3474 68.8871 16.1672 68.8871 17.2601V24.3998H65.476V11.1782H67.4063C68.2242 11.1782 68.8871 11.8412 68.8871 12.659C69.7157 11.425 71.029 10.808 72.8271 10.808Z" fill="white"/>
    <path d="M92.7956 22.7603C91.4382 24.1001 89.7811 24.77 87.8243 24.77C85.8675 24.77 84.2104 24.1001 82.853 22.7603C81.5132 21.4029 80.8433 19.7458 80.8433 17.789C80.8433 15.8322 81.5132 14.1839 82.853 12.8441C84.2104 11.4867 85.8675 10.808 87.8243 10.808C89.7811 10.808 91.4382 11.4867 92.7956 12.8441C94.153 14.1839 94.8317 15.8322 94.8317 17.789C94.8317 19.7458 94.153 21.4029 92.7956 22.7603ZM85.2593 20.4069C85.9468 21.0944 86.8018 21.4381 87.8243 21.4381C88.8467 21.4381 89.7017 21.0944 90.3893 20.4069C91.0768 19.7193 91.4205 18.8467 91.4205 17.789C91.4205 16.7313 91.0768 15.8587 90.3893 15.1711C89.7017 14.4836 88.8467 14.1399 87.8243 14.1399C86.8018 14.1399 85.9468 14.4836 85.2593 15.1711C84.5894 15.8587 84.2545 16.7313 84.2545 17.789C84.2545 18.8467 84.5894 19.7193 85.2593 20.4069Z" fill="white"/>
    <path d="M100.887 14.9331C100.887 15.2857 101.117 15.5766 101.575 15.8058C102.051 16.0173 102.624 16.2112 103.294 16.3875C103.964 16.5462 104.633 16.7577 105.303 17.0221C105.973 17.2689 106.537 17.692 106.996 18.2914C107.472 18.8908 107.71 19.64 107.71 20.5391C107.71 21.8965 107.198 22.9454 106.176 23.6858C105.171 24.4086 103.911 24.77 102.395 24.77C99.6798 24.77 97.8288 23.721 96.8416 21.6232L99.8032 19.9573C100.191 21.1032 101.055 21.6761 102.395 21.6761C103.611 21.6761 104.219 21.2971 104.219 20.5391C104.219 20.1865 103.981 19.9044 103.505 19.6929C103.047 19.4637 102.483 19.261 101.813 19.0847C101.143 18.9084 100.473 18.6881 99.8032 18.4236C99.1333 18.1592 98.5604 17.7449 98.0844 17.1808C97.626 16.5991 97.3969 15.8763 97.3969 15.0125C97.3969 13.708 97.8728 12.6855 98.8248 11.9451C99.7944 11.187 100.993 10.808 102.421 10.808C103.496 10.808 104.475 11.0548 105.356 11.5484C106.238 12.0244 106.934 12.7119 107.445 13.611L104.536 15.1976C104.113 14.2985 103.408 13.849 102.421 13.849C101.98 13.849 101.61 13.9459 101.31 14.1399C101.028 14.3338 100.887 14.5982 100.887 14.9331Z" fill="white"/>
    <path d="M116.809 24.77C114.817 24.77 113.151 24.1001 111.812 22.7603C110.489 21.4205 109.828 19.7634 109.828 17.789C109.828 15.8146 110.489 14.1575 111.812 12.8177C113.151 11.4779 114.817 10.808 116.809 10.808C118.096 10.808 119.269 11.1165 120.326 11.7335C121.384 12.3505 122.186 13.1791 122.733 14.2192L119.797 15.938C119.533 15.3915 119.128 14.9596 118.581 14.6423C118.052 14.325 117.453 14.1663 116.783 14.1663C115.76 14.1663 114.914 14.5101 114.244 15.1976C113.574 15.8675 113.24 16.7313 113.24 17.789C113.24 18.8291 113.574 19.6929 114.244 20.3804C114.914 21.0503 115.76 21.3852 116.783 21.3852C117.47 21.3852 118.079 21.2354 118.607 20.9357C119.154 20.6184 119.559 20.1865 119.824 19.64L122.785 21.3324C122.204 22.3725 121.384 23.2098 120.326 23.8444C119.269 24.4615 118.096 24.77 116.809 24.77Z" fill="white"/>
    <path d="M136.441 22.7603C135.084 24.1001 133.427 24.77 131.47 24.77C129.513 24.77 127.856 24.1001 126.498 22.7603C125.159 21.4029 124.489 19.7458 124.489 17.789C124.489 15.8322 125.159 14.1839 126.498 12.8441C127.856 11.4867 129.513 10.808 131.47 10.808C133.427 10.808 135.084 11.4867 136.441 12.8441C137.798 14.1839 138.477 15.8322 138.477 17.789C138.477 19.7458 137.798 21.4029 136.441 22.7603ZM128.905 20.4069C129.592 21.0944 130.447 21.4381 131.47 21.4381C132.492 21.4381 133.347 21.0944 134.035 20.4069C134.722 19.7193 135.066 18.8467 135.066 17.789C135.066 16.7313 134.722 15.8587 134.035 15.1711C133.347 14.4836 132.492 14.1399 131.47 14.1399C130.447 14.1399 129.592 14.4836 128.905 15.1711C128.235 15.8587 127.9 16.7313 127.9 17.789C127.9 18.8467 128.235 19.7193 128.905 20.4069Z" fill="white"/>
    <path d="M149.365 10.808C151.146 10.808 152.662 11.4867 153.913 12.8441C155.183 14.1839 155.817 15.8322 155.817 17.789C155.817 19.7458 155.183 21.4029 153.913 22.7603C152.662 24.1001 151.146 24.77 149.365 24.77C147.514 24.77 146.086 24.1265 145.081 22.8396V26.2772C145.081 28.1611 143.554 29.6884 141.67 29.6884V11.1782H145.081V12.7384C146.086 11.4515 147.514 10.808 149.365 10.808ZM146.113 20.4862C146.8 21.1737 147.673 21.5175 148.73 21.5175C149.788 21.5175 150.661 21.1737 151.348 20.4862C152.053 19.781 152.406 18.882 152.406 17.789C152.406 16.696 152.053 15.8058 151.348 15.1182C150.661 14.4131 149.788 14.0605 148.73 14.0605C147.673 14.0605 146.8 14.4131 146.113 15.1182C145.425 15.8058 145.081 16.696 145.081 17.789C145.081 18.882 145.425 19.781 146.113 20.4862Z" fill="white"/>
    <path d="M161.898 19.1905C162.357 20.8476 163.6 21.6761 165.627 21.6761C166.931 21.6761 167.919 21.2354 168.589 20.354L171.339 21.9405C170.034 23.8268 168.113 24.77 165.574 24.77C163.388 24.77 161.634 24.1089 160.312 22.7867C158.99 21.4646 158.329 19.7987 158.329 17.789C158.329 15.797 158.981 14.1399 160.285 12.8177C161.59 11.4779 163.265 10.808 165.31 10.808C167.249 10.808 168.844 11.4779 170.096 12.8177C171.365 14.1575 172 15.8146 172 17.789C172 18.2297 171.956 18.6969 171.867 19.1905H161.898ZM161.846 16.5462H168.589C168.395 15.6471 167.989 14.9772 167.372 14.5365C166.773 14.0958 166.085 13.8754 165.31 13.8754C164.393 13.8754 163.635 14.1134 163.036 14.5894C162.436 15.0477 162.039 15.7 161.846 16.5462Z" fill="white"/>
</svg>
