<svg width="40" height="49" viewBox="0 0 40 49" fill="none" xmlns="http://www.w3.org/2000/svg">
    <path d="M39 19.7755C39 33.3878 20.475 47 20.475 47C20.475 47 1 33.3878 1 19.7755C1 9.40608 9.50659 1 20 1C30.4934 1 39 9.40608 39 19.7755Z" fill="#13EC50"/>
    <path d="M20.475 47L19.9021 47.8196L20.4896 48.2302L21.0671 47.8058L20.475 47ZM38 19.7755C38 26.1791 33.6068 32.7393 28.9969 37.8204C26.7167 40.3337 24.4333 42.4313 22.7187 43.9012C21.8621 44.6355 21.1494 45.2115 20.6524 45.6028C20.404 45.7984 20.2096 45.9477 20.0783 46.0474C20.0127 46.0972 19.9628 46.1346 19.9299 46.1593C19.9134 46.1716 19.9011 46.1806 19.8933 46.1865C19.8893 46.1894 19.8865 46.1915 19.8847 46.1928C19.8839 46.1934 19.8833 46.1939 19.883 46.1941C19.8828 46.1942 19.8828 46.1942 19.8827 46.1943C19.8827 46.1942 19.8829 46.1942 20.475 47C21.0671 47.8058 21.0674 47.8056 21.0677 47.8054C21.0679 47.8053 21.0683 47.805 21.0687 47.8047C21.0695 47.8041 21.0706 47.8033 21.072 47.8022C21.0748 47.8002 21.0786 47.7974 21.0836 47.7937C21.0935 47.7863 21.1079 47.7757 21.1264 47.7618C21.1636 47.7341 21.2177 47.6934 21.2878 47.6402C21.4278 47.5339 21.6315 47.3774 21.8896 47.1742C22.4057 46.7679 23.1402 46.1741 24.0204 45.4196C25.7792 43.9118 28.1271 41.7556 30.4781 39.1643C35.1307 34.0362 40 26.9842 40 19.7755H38ZM20.475 47C21.0479 46.1804 21.048 46.1804 21.048 46.1805C21.048 46.1804 21.0479 46.1804 21.0478 46.1803C21.0474 46.18 21.0468 46.1796 21.0459 46.1789C21.044 46.1776 21.041 46.1755 21.0368 46.1726C21.0285 46.1667 21.0156 46.1576 20.9982 46.1452C20.9634 46.1206 20.9109 46.0831 20.8418 46.0331C20.7036 45.9333 20.499 45.7838 20.2376 45.5881C19.7147 45.1965 18.965 44.6201 18.064 43.8854C16.2605 42.4148 13.859 40.3162 11.4611 37.8022C9.06037 35.2851 6.68328 32.3724 4.91089 29.2753C3.13586 26.1736 2 22.9442 2 19.7755H0C0 23.413 1.29851 26.9896 3.17504 30.2687C5.05422 33.5524 7.54588 36.595 10.0139 39.1825C12.4847 41.7731 14.952 43.9284 16.8001 45.4354C17.7249 46.1895 18.4966 46.7829 19.0388 47.1889C19.3099 47.392 19.5237 47.5483 19.6708 47.6545C19.7443 47.7076 19.8011 47.7482 19.8401 47.7758C19.8596 47.7897 19.8746 47.8003 19.885 47.8076C19.8901 47.8112 19.8942 47.8141 19.8971 47.8161C19.8985 47.8171 19.8996 47.8179 19.9005 47.8185C19.9009 47.8188 19.9013 47.8191 19.9015 47.8192C19.9018 47.8195 19.9021 47.8196 20.475 47ZM2 19.7755C2 9.96954 10.0476 2 20 2V0C8.96554 0 0 8.84262 0 19.7755H2ZM20 2C29.9524 2 38 9.96954 38 19.7755H40C40 8.84262 31.0345 0 20 0V2Z" fill="white"/>
</svg>
