<svg width="33" height="32" viewBox="0 0 33 32" fill="none" xmlns="http://www.w3.org/2000/svg">
    <path d="M16.5 32C25.3366 32 32.5 24.8366 32.5 16C32.5 7.16344 25.3366 0 16.5 0C7.66344 0 0.5 7.16344 0.5 16C0.5 24.8366 7.66344 32 16.5 32Z" fill="#0082DA"/>
    <path fill-rule="evenodd" clip-rule="evenodd" d="M15.8942 23.0173H17.15C17.15 23.0173 17.5294 22.9757 17.723 22.7669C17.9013 22.5752 17.8956 22.2153 17.8956 22.2153C17.8956 22.2153 17.8711 20.5302 18.6531 20.2821C19.4241 20.0377 20.414 21.9107 21.4633 22.6308C22.2568 23.1759 22.8598 23.0564 22.8598 23.0564L25.6654 23.0173C25.6654 23.0173 27.1331 22.9269 26.4372 21.7729C26.3802 21.6785 26.0319 20.9193 24.3512 19.3591C22.5919 17.7263 22.8275 17.9904 24.9467 15.1659C26.2373 13.4458 26.7532 12.3956 26.5921 11.9458C26.4384 11.5174 25.4892 11.6307 25.4892 11.6307L22.3301 11.6503C22.3301 11.6503 22.096 11.6184 21.9223 11.7222C21.7526 11.824 21.6433 12.0613 21.6433 12.0613C21.6433 12.0613 21.1433 13.3924 20.4765 14.5244C19.0698 16.9131 18.5074 17.0392 18.2775 16.8909C17.7427 16.5452 17.8762 15.5022 17.8762 14.7612C17.8762 12.4464 18.2273 11.4812 17.1925 11.2314C16.8491 11.1484 16.5964 11.0936 15.7183 11.0848C14.5911 11.0731 13.637 11.0882 13.0968 11.3529C12.7375 11.5288 12.4602 11.921 12.6291 11.9435C12.8379 11.9715 13.3108 12.071 13.5615 12.4124C13.8852 12.8528 13.8738 13.8419 13.8738 13.8419C13.8738 13.8419 14.0597 16.5669 13.4394 16.9054C13.0136 17.1376 12.4294 16.6636 11.1754 14.4965C10.5328 13.3864 10.0476 12.1594 10.0476 12.1594C10.0476 12.1594 9.95406 11.9301 9.78721 11.8075C9.58471 11.6589 9.30177 11.6115 9.30177 11.6115L6.29988 11.6312C6.29988 11.6312 5.84924 11.6438 5.68382 11.8397C5.53665 12.014 5.67213 12.3745 5.67213 12.3745C5.67213 12.3745 8.0223 17.8729 10.6834 20.6437C13.1234 23.1842 15.8942 23.0173 15.8942 23.0173Z" fill="white"/>
</svg>
