<svg width="33" height="32" viewBox="0 0 33 32" fill="none" xmlns="http://www.w3.org/2000/svg">
    <path d="M16.504 0H16.496C7.674 0 0.5 7.176 0.5 16C0.5 19.5 1.628 22.744 3.546 25.378L1.552 31.322L7.702 29.356C10.232 31.032 13.25 32 16.504 32C25.326 32 32.5 24.822 32.5 16C32.5 7.178 25.326 0 16.504 0Z" fill="#67E383"/>
    <path d="M25.8131 22.5939C25.4271 23.6839 23.8951 24.5879 22.6731 24.8519C21.8371 25.0299 20.7451 25.1719 17.0691 23.6479C12.3671 21.6999 9.33913 16.9219 9.10313 16.6119C8.87713 16.3019 7.20312 14.0819 7.20312 11.7859C7.20312 9.48987 8.36913 8.37187 8.83913 7.89187C9.22513 7.49787 9.86312 7.31787 10.4751 7.31787C10.6731 7.31787 10.8511 7.32787 11.0111 7.33587C11.4811 7.35587 11.7171 7.38387 12.0271 8.12587C12.4131 9.05587 13.3531 11.3519 13.4651 11.5879C13.5791 11.8239 13.6931 12.1439 13.5331 12.4539C13.3831 12.7739 13.2511 12.9159 13.0151 13.1879C12.7791 13.4599 12.5551 13.6679 12.3191 13.9599C12.1031 14.2139 11.8591 14.4859 12.1311 14.9559C12.4031 15.4159 13.3431 16.9499 14.7271 18.1819C16.5131 19.7719 17.9611 20.2799 18.4791 20.4959C18.8651 20.6559 19.3251 20.6179 19.6071 20.3179C19.9651 19.9319 20.4071 19.2919 20.8571 18.6619C21.1771 18.2099 21.5811 18.1539 22.0051 18.3139C22.4371 18.4639 24.7231 19.5939 25.1931 19.8279C25.6631 20.0639 25.9731 20.1759 26.0871 20.3739C26.1991 20.5719 26.1991 21.5019 25.8131 22.5939Z" fill="#FAFAFA"/>
</svg>