<svg width="24" height="24" viewBox="0 0 24 24" fill="none" xmlns="http://www.w3.org/2000/svg">
    <path fill-rule="evenodd" clip-rule="evenodd" d="M8 0C3.58172 0 0 3.58172 0 8V16C0 20.4183 3.58172 24 8 24H16C20.4183 24 24 20.4183 24 16V8C24 3.58172 20.4183 0 16 0H8ZM19.0889 9.03162C19.6587 8.43022 19.633 7.48082 19.0316 6.91107C18.4302 6.34132 17.4808 6.36698 16.9111 6.96838L10.3011 13.9455L6.96152 11.1564C6.32568 10.6254 5.37974 10.7103 4.84871 11.3462C4.31767 11.982 4.40264 12.928 5.03848 13.459L9.45953 17.1513L10.541 18.0545L11.51 17.0316L19.0889 9.03162Z" fill="#7749D9"/>
</svg>
