<svg width="56" height="56" viewBox="0 0 56 56" fill="none" xmlns="http://www.w3.org/2000/svg">
    <path d="M40.7663 12.7774L26.4145 9.10669C21.2087 7.77523 17.361 9.90953 15.9615 14.895L11.2217 31.7801C9.79929 36.8472 12.0319 40.4666 17.2376 41.7981L31.5894 45.4688C36.8791 46.8217 40.6228 44.7309 42.0453 39.6637L46.7851 22.7786C48.1846 17.7932 46.0559 14.1303 40.7663 12.7774Z" fill="url(#paint0_linear_10676_90027)"/>
    <g opacity="0.5" filter="url(#filter0_f_10676_90027)">
        <path d="M37.0167 17.401L27.2387 14.9002C23.692 13.993 21.0705 15.4471 20.117 18.8438L16.8877 30.3477C15.9186 33.8 17.4397 36.266 20.9865 37.1731L30.7645 39.674C34.3684 40.5958 36.919 39.1713 37.8881 35.7189L41.1174 24.215C42.0709 20.8184 40.6206 18.3228 37.0167 17.401Z" fill="#FE6B01"/>
    </g>
    <g filter="url(#filter1_b_10676_90027)">
        <path d="M28.963 16H12.0565C5.446 16 1 20.641 1 27.544V43.4755C1 50.359 5.446 55 12.0565 55H28.963C35.5735 55 40 50.359 40 43.4755V27.544C40 20.641 35.5735 16 28.963 16Z" fill="#FE6B01" fill-opacity="0.35"/>
        <path d="M28.963 15.5H12.0565C8.62986 15.5 5.73022 16.7056 3.68823 18.8375C1.64803 20.9675 0.5 23.9841 0.5 27.544V43.4755C0.5 47.026 1.64825 50.0377 3.68844 52.1651C5.73037 54.2944 8.62988 55.5 12.0565 55.5H28.963C32.3897 55.5 35.2846 54.2943 37.3218 52.1647C39.357 50.037 40.5 47.0254 40.5 43.4755V27.544C40.5 23.9847 39.3572 20.9682 37.322 18.838C35.2848 16.7057 32.3897 15.5 28.963 15.5Z" stroke="url(#paint1_linear_10676_90027)" stroke-linecap="round" stroke-linejoin="round"/>
    </g>
    <g filter="url(#filter2_b_10676_90027)">
        <path d="M21 45C24.976 45 29 43.626 29 41V29C29 26.374 24.976 25 21 25C17.024 25 13 26.374 13 29V41C13 43.626 17.024 45 21 45ZM21 43C17.278 43 15 41.705 15 41V39.732C16.541 40.57 18.777 41 21 41C23.223 41 25.459 40.57 27 39.732V41C27 41.705 24.722 43 21 43ZM21 27C24.722 27 27 28.295 27 29C27 29.705 24.722 31 21 31C17.278 31 15 29.705 15 29C15 28.295 17.278 27 21 27ZM15 31.732C16.541 32.57 18.777 33 21 33C23.223 33 25.459 32.57 27 31.732V33C27 33.705 24.722 35 21 35C17.278 35 15 33.705 15 33V31.732ZM15 35.732C16.541 36.57 18.777 37 21 37C23.223 37 25.459 36.57 27 35.732V37C27 37.705 24.722 39 21 39C17.278 39 15 37.705 15 37V35.732Z" fill="url(#paint2_linear_10676_90027)"/>
    </g>
    <defs>
        <filter id="filter0_f_10676_90027" x="2.60156" y="0.635742" width="52.8008" height="53.3123" filterUnits="userSpaceOnUse" color-interpolation-filters="sRGB">
            <feFlood flood-opacity="0" result="BackgroundImageFix"/>
            <feBlend mode="normal" in="SourceGraphic" in2="BackgroundImageFix" result="shape"/>
            <feGaussianBlur stdDeviation="7" result="effect1_foregroundBlur_10676_90027"/>
        </filter>
        <filter id="filter1_b_10676_90027" x="-24" y="-9" width="89" height="89" filterUnits="userSpaceOnUse" color-interpolation-filters="sRGB">
            <feFlood flood-opacity="0" result="BackgroundImageFix"/>
            <feGaussianBlur in="BackgroundImage" stdDeviation="12"/>
            <feComposite in2="SourceAlpha" operator="in" result="effect1_backgroundBlur_10676_90027"/>
            <feBlend mode="normal" in="SourceGraphic" in2="effect1_backgroundBlur_10676_90027" result="shape"/>
        </filter>
        <filter id="filter2_b_10676_90027" x="-2" y="10" width="46" height="50" filterUnits="userSpaceOnUse" color-interpolation-filters="sRGB">
            <feFlood flood-opacity="0" result="BackgroundImageFix"/>
            <feGaussianBlur in="BackgroundImage" stdDeviation="7.5"/>
            <feComposite in2="SourceAlpha" operator="in" result="effect1_backgroundBlur_10676_90027"/>
            <feBlend mode="normal" in="SourceGraphic" in2="effect1_backgroundBlur_10676_90027" result="shape"/>
        </filter>
        <linearGradient id="paint0_linear_10676_90027" x1="33.5895" y1="10.9418" x2="25.1781" y2="43.829" gradientUnits="userSpaceOnUse">
            <stop stop-color="#FE6B01"/>
            <stop offset="1" stop-color="#FF7B0D"/>
            <stop offset="1" stop-color="#FF710B"/>
        </linearGradient>
        <linearGradient id="paint1_linear_10676_90027" x1="7.20816" y1="20.5436" x2="32.086" y2="51.3554" gradientUnits="userSpaceOnUse">
            <stop stop-color="white" stop-opacity="0.25"/>
            <stop offset="1" stop-color="white" stop-opacity="0"/>
        </linearGradient>
        <linearGradient id="paint2_linear_10676_90027" x1="27.8656" y1="28.6116" x2="10.0363" y2="29.0767" gradientUnits="userSpaceOnUse">
            <stop stop-color="white"/>
            <stop offset="1" stop-color="white" stop-opacity="0.2"/>
        </linearGradient>
    </defs>
</svg>
