<svg width="71" height="73" viewBox="0 0 71 73" fill="none" xmlns="http://www.w3.org/2000/svg">
    <path d="M53.3304 21H39.2248C33.7094 21 30 24.8721 30 30.6315L30 43.9237C30 49.6669 33.7094 53.539 39.2248 53.539H53.3304C58.8458 53.539 62.539 49.6669 62.539 43.9237L62.539 30.6315C62.539 24.8721 58.8458 21 53.3304 21Z" fill="url(#paint0_linear_10676_87002)"/>
    <g opacity="0.5" filter="url(#filter0_f_10676_87002)">
        <rect width="21.7958" height="22.2938" rx="10.8979" transform="matrix(-0.25388 -0.967236 0.964567 -0.26384 27.7832 49.4639)" fill="#FE6B01"/>
    </g>
    <g filter="url(#filter1_b_10676_87002)">
        <path d="M42.5858 27.9209H26.512C20.227 27.9209 16 32.3333 16 38.8964V54.0433C16 60.5878 20.227 65.0002 26.512 65.0002H42.5858C48.8708 65.0002 53.0793 60.5878 53.0793 54.0433V38.8964C53.0793 32.3333 48.8708 27.9209 42.5858 27.9209Z" fill="#FE6B01" fill-opacity="0.35"/>
        <path d="M42.5858 27.4209H26.512C23.2481 27.4209 20.4846 28.5694 18.5381 30.6016C16.5933 32.632 15.5 35.5065 15.5 38.8964V54.0433C15.5 57.4243 16.5935 60.2941 18.5383 62.322C20.4848 64.3518 23.2481 65.5002 26.512 65.5002H42.5858C45.8498 65.5002 48.6088 64.3517 50.5507 62.3216C52.4908 60.2934 53.5793 57.4237 53.5793 54.0433V38.8964C53.5793 35.5071 52.491 32.6327 50.5509 30.6021C48.6089 28.5695 45.8498 27.4209 42.5858 27.4209Z" stroke="url(#paint1_linear_10676_87002)" stroke-linecap="round" stroke-linejoin="round"/>
    </g>
    <g filter="url(#filter2_bd_10676_87002)">
        <mask id="path-5-inside-1_10676_87002" fill="white">
            <path fill-rule="evenodd" clip-rule="evenodd" d="M21.181 40.1942C21.0176 40.3802 21 40.9509 21 46.0482V51.6961L21.2431 51.8714C21.4403 52.0138 21.8425 52.0469 23.376 52.0469C25.1198 52.0469 25.2825 52.0296 25.4844 51.8215C25.6047 51.6976 25.7031 51.5201 25.7031 51.4271C25.7031 51.3341 25.7357 51.258 25.7755 51.258C25.8155 51.258 26.3695 51.7779 27.007 52.4132C28.1144 53.517 30.5985 55.5953 32.3976 56.9231C33.727 57.9042 34.871 58.2105 35.8985 57.8602C36.1563 57.7723 36.617 57.7021 36.9225 57.7042C37.596 57.7087 38.0054 57.5046 38.5353 56.9003C38.8876 56.4984 38.9953 56.4422 39.4122 56.4422C40.0075 56.4422 40.7762 56.0393 41.0703 55.5732C41.2248 55.3284 41.4041 55.2069 41.6805 55.1599C42.5288 55.0155 43.3125 54.0813 43.3125 53.214C43.3125 52.9446 43.3919 52.7929 43.6209 52.6248C44.0857 52.2839 44.1652 52.2943 44.3762 52.7231L44.5703 53.1176L46.6109 53.1482C48.3585 53.1744 48.6765 53.1531 48.8258 52.9992C48.9804 52.8399 49 52.1947 49 47.2418C49 43.6122 48.9604 41.5876 48.8868 41.4457C48.7865 41.2528 48.6493 41.2278 47.6892 41.2278C45.8603 41.2278 43.7637 41.5673 42 42.1493C41.1858 42.418 40.9325 42.6068 40.885 42.9803C40.8519 43.2412 40.8337 43.2364 39.2656 42.563C36.6392 41.4349 36.2409 41.3071 35.3281 41.2989C34.6586 41.2929 34.3911 41.3471 33.8732 41.5942C33.5241 41.7607 33.1114 41.9999 32.9561 42.1259C32.6922 42.3397 32.52 42.3548 30.3368 42.3548H28V42.0092C28 41.4781 27.8458 41.2882 27.1578 40.9724C26.392 40.6209 25.2942 40.3803 23.4336 40.156C21.642 39.9401 21.4006 39.9441 21.181 40.1942ZM24.5 41.522C25.7005 41.7108 26.7969 42.0051 26.7969 42.1385C26.7969 42.7269 25.9213 46.4419 25.1324 49.2013L24.6731 50.8072H23.4382H22.2031V46.0094V41.2116L22.832 41.285C23.1779 41.3255 23.9285 41.4321 24.5 41.522ZM47.7969 47.2046V52.0544L46.5816 52.0225L45.3663 51.9906L44.521 49.4548C44.0561 48.0602 43.3725 46.1308 43.002 45.1672C42.6313 44.2037 42.3281 43.3851 42.3281 43.3482C42.3281 43.1427 44.9328 42.6015 46.5357 42.4741C47.1391 42.4261 47.6697 42.3797 47.7148 42.3708C47.76 42.362 47.7969 44.5372 47.7969 47.2046ZM37.7963 43.2599C38.6947 43.6474 39.9219 44.1542 40.5234 44.386L41.6172 44.8073L42.2387 46.4831C42.5806 47.4047 43.0711 48.801 43.3289 49.5859L43.7977 51.013L43.5277 51.2417C42.8643 51.8035 42.8841 51.8089 41.8787 50.7878C41.3704 50.2717 40.1688 49.19 39.2084 48.3842C38.248 47.5784 37.0836 46.5768 36.6208 46.1584C36.158 45.7399 35.7009 45.3977 35.6051 45.3977C35.5093 45.3977 35.1386 45.5244 34.7812 45.6794C34.4239 45.8344 34.0249 45.9612 33.8947 45.9612C33.7513 45.9612 33.4799 46.1657 33.2078 46.4789C32.6549 47.1152 32.3006 47.3135 31.717 47.3135C31.1386 47.3135 30.8438 47.1471 30.8438 46.8205C30.8438 46.0165 32.2665 44.0871 33.5101 43.2045C34.8589 42.2473 35.4677 42.2552 37.7963 43.2599ZM30.7552 44.2988C29.134 46.5061 29.42 48.3054 31.4258 48.5188C32.2468 48.606 32.9932 48.3298 33.6965 47.6784C34.0407 47.3594 34.4907 47.0767 34.8569 46.9493L35.4552 46.7411L36.3487 47.5127C36.8401 47.937 37.8082 48.7599 38.5 49.3413C41.8339 52.1435 42.5439 53.0643 41.8906 53.7374C41.4597 54.1814 41.269 54.0576 39.375 52.1033C37.9257 50.6079 37.5144 50.2437 37.2747 50.2437C36.9673 50.2437 36.75 50.5059 36.75 50.8767C36.75 50.985 37.5379 51.8908 38.501 52.8897C40.0248 54.4704 40.234 54.7302 40.1143 54.8928C39.9676 55.0918 39.4761 55.3152 39.1847 55.3152C39.0879 55.3152 38.2892 54.5798 37.4099 53.6811C35.7795 52.0146 35.5318 51.8532 35.1718 52.224C34.8203 52.5862 34.9746 52.847 36.4492 54.3835L37.8984 55.8936L37.5412 56.2242C37.3448 56.4061 37.082 56.5549 36.9572 56.5549C36.812 56.5549 36.1281 55.9461 35.0583 54.8644C34.1386 53.9346 33.3419 53.1739 33.2877 53.1739C33.2336 53.1739 33.0799 53.2529 32.9463 53.3494C32.4565 53.7028 32.6105 54.0143 33.9825 55.4456L35.2618 56.7803L34.8848 56.7778C34.6775 56.7765 34.3005 56.6784 34.0473 56.56C33.0682 56.102 28.722 52.5375 27.2168 50.9581L26.1601 49.8493L26.5274 48.5743C26.7294 47.8731 27.0742 46.5292 27.2938 45.5878C27.5134 44.6464 27.7113 43.8129 27.7337 43.7353C27.7641 43.6303 28.2189 43.5945 29.5235 43.5945H31.2725L30.7552 44.2988Z"/>
        </mask>
        <path fill-rule="evenodd" clip-rule="evenodd" d="M21.181 40.1942C21.0176 40.3802 21 40.9509 21 46.0482V51.6961L21.2431 51.8714C21.4403 52.0138 21.8425 52.0469 23.376 52.0469C25.1198 52.0469 25.2825 52.0296 25.4844 51.8215C25.6047 51.6976 25.7031 51.5201 25.7031 51.4271C25.7031 51.3341 25.7357 51.258 25.7755 51.258C25.8155 51.258 26.3695 51.7779 27.007 52.4132C28.1144 53.517 30.5985 55.5953 32.3976 56.9231C33.727 57.9042 34.871 58.2105 35.8985 57.8602C36.1563 57.7723 36.617 57.7021 36.9225 57.7042C37.596 57.7087 38.0054 57.5046 38.5353 56.9003C38.8876 56.4984 38.9953 56.4422 39.4122 56.4422C40.0075 56.4422 40.7762 56.0393 41.0703 55.5732C41.2248 55.3284 41.4041 55.2069 41.6805 55.1599C42.5288 55.0155 43.3125 54.0813 43.3125 53.214C43.3125 52.9446 43.3919 52.7929 43.6209 52.6248C44.0857 52.2839 44.1652 52.2943 44.3762 52.7231L44.5703 53.1176L46.6109 53.1482C48.3585 53.1744 48.6765 53.1531 48.8258 52.9992C48.9804 52.8399 49 52.1947 49 47.2418C49 43.6122 48.9604 41.5876 48.8868 41.4457C48.7865 41.2528 48.6493 41.2278 47.6892 41.2278C45.8603 41.2278 43.7637 41.5673 42 42.1493C41.1858 42.418 40.9325 42.6068 40.885 42.9803C40.8519 43.2412 40.8337 43.2364 39.2656 42.563C36.6392 41.4349 36.2409 41.3071 35.3281 41.2989C34.6586 41.2929 34.3911 41.3471 33.8732 41.5942C33.5241 41.7607 33.1114 41.9999 32.9561 42.1259C32.6922 42.3397 32.52 42.3548 30.3368 42.3548H28V42.0092C28 41.4781 27.8458 41.2882 27.1578 40.9724C26.392 40.6209 25.2942 40.3803 23.4336 40.156C21.642 39.9401 21.4006 39.9441 21.181 40.1942ZM24.5 41.522C25.7005 41.7108 26.7969 42.0051 26.7969 42.1385C26.7969 42.7269 25.9213 46.4419 25.1324 49.2013L24.6731 50.8072H23.4382H22.2031V46.0094V41.2116L22.832 41.285C23.1779 41.3255 23.9285 41.4321 24.5 41.522ZM47.7969 47.2046V52.0544L46.5816 52.0225L45.3663 51.9906L44.521 49.4548C44.0561 48.0602 43.3725 46.1308 43.002 45.1672C42.6313 44.2037 42.3281 43.3851 42.3281 43.3482C42.3281 43.1427 44.9328 42.6015 46.5357 42.4741C47.1391 42.4261 47.6697 42.3797 47.7148 42.3708C47.76 42.362 47.7969 44.5372 47.7969 47.2046ZM37.7963 43.2599C38.6947 43.6474 39.9219 44.1542 40.5234 44.386L41.6172 44.8073L42.2387 46.4831C42.5806 47.4047 43.0711 48.801 43.3289 49.5859L43.7977 51.013L43.5277 51.2417C42.8643 51.8035 42.8841 51.8089 41.8787 50.7878C41.3704 50.2717 40.1688 49.19 39.2084 48.3842C38.248 47.5784 37.0836 46.5768 36.6208 46.1584C36.158 45.7399 35.7009 45.3977 35.6051 45.3977C35.5093 45.3977 35.1386 45.5244 34.7812 45.6794C34.4239 45.8344 34.0249 45.9612 33.8947 45.9612C33.7513 45.9612 33.4799 46.1657 33.2078 46.4789C32.6549 47.1152 32.3006 47.3135 31.717 47.3135C31.1386 47.3135 30.8438 47.1471 30.8438 46.8205C30.8438 46.0165 32.2665 44.0871 33.5101 43.2045C34.8589 42.2473 35.4677 42.2552 37.7963 43.2599ZM30.7552 44.2988C29.134 46.5061 29.42 48.3054 31.4258 48.5188C32.2468 48.606 32.9932 48.3298 33.6965 47.6784C34.0407 47.3594 34.4907 47.0767 34.8569 46.9493L35.4552 46.7411L36.3487 47.5127C36.8401 47.937 37.8082 48.7599 38.5 49.3413C41.8339 52.1435 42.5439 53.0643 41.8906 53.7374C41.4597 54.1814 41.269 54.0576 39.375 52.1033C37.9257 50.6079 37.5144 50.2437 37.2747 50.2437C36.9673 50.2437 36.75 50.5059 36.75 50.8767C36.75 50.985 37.5379 51.8908 38.501 52.8897C40.0248 54.4704 40.234 54.7302 40.1143 54.8928C39.9676 55.0918 39.4761 55.3152 39.1847 55.3152C39.0879 55.3152 38.2892 54.5798 37.4099 53.6811C35.7795 52.0146 35.5318 51.8532 35.1718 52.224C34.8203 52.5862 34.9746 52.847 36.4492 54.3835L37.8984 55.8936L37.5412 56.2242C37.3448 56.4061 37.082 56.5549 36.9572 56.5549C36.812 56.5549 36.1281 55.9461 35.0583 54.8644C34.1386 53.9346 33.3419 53.1739 33.2877 53.1739C33.2336 53.1739 33.0799 53.2529 32.9463 53.3494C32.4565 53.7028 32.6105 54.0143 33.9825 55.4456L35.2618 56.7803L34.8848 56.7778C34.6775 56.7765 34.3005 56.6784 34.0473 56.56C33.0682 56.102 28.722 52.5375 27.2168 50.9581L26.1601 49.8493L26.5274 48.5743C26.7294 47.8731 27.0742 46.5292 27.2938 45.5878C27.5134 44.6464 27.7113 43.8129 27.7337 43.7353C27.7641 43.6303 28.2189 43.5945 29.5235 43.5945H31.2725L30.7552 44.2988Z" fill="url(#paint2_linear_10676_87002)"/>
        <path fill-rule="evenodd" clip-rule="evenodd" d="M21.181 40.1942C21.0176 40.3802 21 40.9509 21 46.0482V51.6961L21.2431 51.8714C21.4403 52.0138 21.8425 52.0469 23.376 52.0469C25.1198 52.0469 25.2825 52.0296 25.4844 51.8215C25.6047 51.6976 25.7031 51.5201 25.7031 51.4271C25.7031 51.3341 25.7357 51.258 25.7755 51.258C25.8155 51.258 26.3695 51.7779 27.007 52.4132C28.1144 53.517 30.5985 55.5953 32.3976 56.9231C33.727 57.9042 34.871 58.2105 35.8985 57.8602C36.1563 57.7723 36.617 57.7021 36.9225 57.7042C37.596 57.7087 38.0054 57.5046 38.5353 56.9003C38.8876 56.4984 38.9953 56.4422 39.4122 56.4422C40.0075 56.4422 40.7762 56.0393 41.0703 55.5732C41.2248 55.3284 41.4041 55.2069 41.6805 55.1599C42.5288 55.0155 43.3125 54.0813 43.3125 53.214C43.3125 52.9446 43.3919 52.7929 43.6209 52.6248C44.0857 52.2839 44.1652 52.2943 44.3762 52.7231L44.5703 53.1176L46.6109 53.1482C48.3585 53.1744 48.6765 53.1531 48.8258 52.9992C48.9804 52.8399 49 52.1947 49 47.2418C49 43.6122 48.9604 41.5876 48.8868 41.4457C48.7865 41.2528 48.6493 41.2278 47.6892 41.2278C45.8603 41.2278 43.7637 41.5673 42 42.1493C41.1858 42.418 40.9325 42.6068 40.885 42.9803C40.8519 43.2412 40.8337 43.2364 39.2656 42.563C36.6392 41.4349 36.2409 41.3071 35.3281 41.2989C34.6586 41.2929 34.3911 41.3471 33.8732 41.5942C33.5241 41.7607 33.1114 41.9999 32.9561 42.1259C32.6922 42.3397 32.52 42.3548 30.3368 42.3548H28V42.0092C28 41.4781 27.8458 41.2882 27.1578 40.9724C26.392 40.6209 25.2942 40.3803 23.4336 40.156C21.642 39.9401 21.4006 39.9441 21.181 40.1942ZM24.5 41.522C25.7005 41.7108 26.7969 42.0051 26.7969 42.1385C26.7969 42.7269 25.9213 46.4419 25.1324 49.2013L24.6731 50.8072H23.4382H22.2031V46.0094V41.2116L22.832 41.285C23.1779 41.3255 23.9285 41.4321 24.5 41.522ZM47.7969 47.2046V52.0544L46.5816 52.0225L45.3663 51.9906L44.521 49.4548C44.0561 48.0602 43.3725 46.1308 43.002 45.1672C42.6313 44.2037 42.3281 43.3851 42.3281 43.3482C42.3281 43.1427 44.9328 42.6015 46.5357 42.4741C47.1391 42.4261 47.6697 42.3797 47.7148 42.3708C47.76 42.362 47.7969 44.5372 47.7969 47.2046ZM37.7963 43.2599C38.6947 43.6474 39.9219 44.1542 40.5234 44.386L41.6172 44.8073L42.2387 46.4831C42.5806 47.4047 43.0711 48.801 43.3289 49.5859L43.7977 51.013L43.5277 51.2417C42.8643 51.8035 42.8841 51.8089 41.8787 50.7878C41.3704 50.2717 40.1688 49.19 39.2084 48.3842C38.248 47.5784 37.0836 46.5768 36.6208 46.1584C36.158 45.7399 35.7009 45.3977 35.6051 45.3977C35.5093 45.3977 35.1386 45.5244 34.7812 45.6794C34.4239 45.8344 34.0249 45.9612 33.8947 45.9612C33.7513 45.9612 33.4799 46.1657 33.2078 46.4789C32.6549 47.1152 32.3006 47.3135 31.717 47.3135C31.1386 47.3135 30.8438 47.1471 30.8438 46.8205C30.8438 46.0165 32.2665 44.0871 33.5101 43.2045C34.8589 42.2473 35.4677 42.2552 37.7963 43.2599ZM30.7552 44.2988C29.134 46.5061 29.42 48.3054 31.4258 48.5188C32.2468 48.606 32.9932 48.3298 33.6965 47.6784C34.0407 47.3594 34.4907 47.0767 34.8569 46.9493L35.4552 46.7411L36.3487 47.5127C36.8401 47.937 37.8082 48.7599 38.5 49.3413C41.8339 52.1435 42.5439 53.0643 41.8906 53.7374C41.4597 54.1814 41.269 54.0576 39.375 52.1033C37.9257 50.6079 37.5144 50.2437 37.2747 50.2437C36.9673 50.2437 36.75 50.5059 36.75 50.8767C36.75 50.985 37.5379 51.8908 38.501 52.8897C40.0248 54.4704 40.234 54.7302 40.1143 54.8928C39.9676 55.0918 39.4761 55.3152 39.1847 55.3152C39.0879 55.3152 38.2892 54.5798 37.4099 53.6811C35.7795 52.0146 35.5318 51.8532 35.1718 52.224C34.8203 52.5862 34.9746 52.847 36.4492 54.3835L37.8984 55.8936L37.5412 56.2242C37.3448 56.4061 37.082 56.5549 36.9572 56.5549C36.812 56.5549 36.1281 55.9461 35.0583 54.8644C34.1386 53.9346 33.3419 53.1739 33.2877 53.1739C33.2336 53.1739 33.0799 53.2529 32.9463 53.3494C32.4565 53.7028 32.6105 54.0143 33.9825 55.4456L35.2618 56.7803L34.8848 56.7778C34.6775 56.7765 34.3005 56.6784 34.0473 56.56C33.0682 56.102 28.722 52.5375 27.2168 50.9581L26.1601 49.8493L26.5274 48.5743C26.7294 47.8731 27.0742 46.5292 27.2938 45.5878C27.5134 44.6464 27.7113 43.8129 27.7337 43.7353C27.7641 43.6303 28.2189 43.5945 29.5235 43.5945H31.2725L30.7552 44.2988Z" stroke="url(#paint3_linear_10676_87002)" stroke-width="2" mask="url(#path-5-inside-1_10676_87002)"/>
    </g>
    <defs>
        <filter id="filter0_f_10676_87002" x="0.65625" y="0.987671" width="70.2246" height="69.9888" filterUnits="userSpaceOnUse" color-interpolation-filters="sRGB">
            <feFlood flood-opacity="0" result="BackgroundImageFix"/>
            <feBlend mode="normal" in="SourceGraphic" in2="BackgroundImageFix" result="shape"/>
            <feGaussianBlur stdDeviation="12" result="effect1_foregroundBlur_10676_87002"/>
        </filter>
        <filter id="filter1_b_10676_87002" x="-9" y="2.9209" width="87.0801" height="87.0793" filterUnits="userSpaceOnUse" color-interpolation-filters="sRGB">
            <feFlood flood-opacity="0" result="BackgroundImageFix"/>
            <feGaussianBlur in="BackgroundImage" stdDeviation="12"/>
            <feComposite in2="SourceAlpha" operator="in" result="effect1_backgroundBlur_10676_87002"/>
            <feBlend mode="normal" in="SourceGraphic" in2="effect1_backgroundBlur_10676_87002" result="shape"/>
        </filter>
        <filter id="filter2_bd_10676_87002" x="6" y="25" width="58" height="48" filterUnits="userSpaceOnUse" color-interpolation-filters="sRGB">
            <feFlood flood-opacity="0" result="BackgroundImageFix"/>
            <feGaussianBlur in="BackgroundImage" stdDeviation="7.5"/>
            <feComposite in2="SourceAlpha" operator="in" result="effect1_backgroundBlur_10676_87002"/>
            <feColorMatrix in="SourceAlpha" type="matrix" values="0 0 0 0 0 0 0 0 0 0 0 0 0 0 0 0 0 0 127 0" result="hardAlpha"/>
            <feOffset dx="5" dy="5"/>
            <feGaussianBlur stdDeviation="5"/>
            <feColorMatrix type="matrix" values="0 0 0 0 0.577356 0 0 0 0 0.359375 0 0 0 0 0.9375 0 0 0 0.5 0"/>
            <feBlend mode="normal" in2="effect1_backgroundBlur_10676_87002" result="effect2_dropShadow_10676_87002"/>
            <feBlend mode="normal" in="SourceGraphic" in2="effect2_dropShadow_10676_87002" result="shape"/>
        </filter>
        <linearGradient id="paint0_linear_10676_87002" x1="46.2695" y1="21" x2="46.2695" y2="53.539" gradientUnits="userSpaceOnUse">
            <stop stop-color="#FE6B01"/>
            <stop offset="1" stop-color="#FF7B0D"/>
            <stop offset="1" stop-color="#FF710B"/>
        </linearGradient>
        <linearGradient id="paint1_linear_10676_87002" x1="21.9024" y1="32.2407" x2="45.5551" y2="61.5351" gradientUnits="userSpaceOnUse">
            <stop stop-color="white" stop-opacity="0.25"/>
            <stop offset="1" stop-color="white" stop-opacity="0"/>
        </linearGradient>
        <linearGradient id="paint2_linear_10676_87002" x1="47.0148" y1="43.2504" x2="15.8724" y2="44.8299" gradientUnits="userSpaceOnUse">
            <stop stop-color="white"/>
            <stop offset="1" stop-color="white" stop-opacity="0.2"/>
        </linearGradient>
        <linearGradient id="paint3_linear_10676_87002" x1="25.4571" y1="42.097" x2="35.0626" y2="60.6029" gradientUnits="userSpaceOnUse">
            <stop stop-color="white" stop-opacity="0.25"/>
            <stop offset="1" stop-color="white" stop-opacity="0"/>
        </linearGradient>
    </defs>
</svg>
