<svg width="67" height="59" viewBox="0 0 67 59" fill="none" xmlns="http://www.w3.org/2000/svg">
    <path d="M28.3325 12.7569L17.2486 16.9108C12.9148 18.5349 11.1963 22.5275 12.9756 26.8413L17.0822 36.797C18.8565 41.0986 22.9676 42.9064 27.3014 41.2823L38.3853 37.1284C42.7191 35.5042 44.4248 31.5164 42.6505 27.2148L38.544 17.2591C36.7646 12.9453 32.6663 11.1327 28.3325 12.7569Z" fill="url(#paint0_linear_10676_87026)"/>
    <g opacity="0.5" filter="url(#filter0_f_10676_87026)">
        <path d="M40.4948 27.0478L37.7134 20.2977C36.7046 17.8493 34.3774 17.0751 31.3963 18.1911L21.2997 21.9711C18.2697 23.1054 17.1564 25.1677 18.1653 27.6161L20.9466 34.3661C21.9717 36.854 24.2432 37.6026 27.2732 36.4683L37.3698 32.6884C40.3509 31.5723 41.5199 29.5357 40.4948 27.0478Z" fill="#FE6B01"/>
    </g>
    <g filter="url(#filter1_b_10676_87026)">
        <path d="M49.6421 24.2098L49.4588 23.8259C48.964 22.8313 48.3959 21.6796 48.0477 21.0165C47.2046 19.4461 45.7568 18.5736 43.9791 18.5562H35.3473C33.5696 18.5736 32.1401 19.4461 31.2971 21.0165C30.9306 21.7145 30.3074 22.9709 29.7943 24.0004L29.6843 24.2098C29.6294 24.3494 29.4827 24.4192 29.3361 24.4192C24.9194 24.4192 21.3457 27.8392 21.3457 32.0271V42.3921C21.3457 46.5799 24.9194 50 29.3361 50H50.0086C54.407 50 57.9991 46.5799 57.9991 42.3921V32.0271C57.9991 27.8392 54.407 24.4192 50.0086 24.4192C49.8437 24.4192 49.7154 24.3319 49.6421 24.2098Z" fill="#FE6B01" fill-opacity="0.4"/>
        <path d="M49.91 23.6105L49.9101 23.6104L49.9065 23.6032C49.8225 23.4343 49.7361 23.2604 49.649 23.0849C49.2252 22.2317 48.7819 21.3393 48.4903 20.7841L48.4904 20.784L48.4882 20.78C47.5587 19.0485 45.9438 18.0754 43.9841 18.0562V18.0562H43.9791H35.3473V18.0561L35.3424 18.0562C33.3804 18.0754 31.7849 19.0506 30.8565 20.78L30.8565 20.78L30.8544 20.7841C30.5303 21.4013 30.0087 22.4485 29.5405 23.3886C29.4755 23.5191 29.4115 23.6476 29.3492 23.7726L29.2721 23.9194C24.631 23.9523 20.8457 27.5615 20.8457 32.0271V42.3921C20.8457 46.8782 24.6659 50.5 29.3361 50.5H50.0086C54.6598 50.5 58.4991 46.8789 58.4991 42.3921V32.0271C58.4991 27.556 54.6866 23.9445 50.0575 23.9193L49.91 23.6105Z" stroke="url(#paint1_linear_10676_87026)" stroke-linecap="round" stroke-linejoin="round"/>
    </g>
    <g filter="url(#filter2_bd_10676_87026)">
        <mask id="path-5-inside-1_10676_87026" fill="white">
            <path fill-rule="evenodd" clip-rule="evenodd" d="M48.3033 30.9105C48.3033 31.7829 49.0363 32.4809 49.9527 32.4809C50.869 32.4809 51.6204 31.7829 51.6204 30.9105C51.6204 30.038 50.869 29.3226 49.9527 29.3226C49.0363 29.3226 48.3033 30.038 48.3033 30.9105ZM44.7479 41.4499C43.4468 42.6888 41.6507 43.4566 39.6715 43.4566C37.7472 43.4566 35.9511 42.7412 34.5766 41.4499C33.2205 40.1412 32.4691 38.4312 32.4691 36.599C32.4508 34.7843 33.2021 33.0742 34.5583 31.7655C35.9328 30.4568 37.7472 29.7414 39.6715 29.7414C41.5958 29.7414 43.4101 30.4568 44.7663 31.7481C46.1225 33.0568 46.8738 34.7843 46.8738 36.599C46.8555 38.501 46.0491 40.211 44.7479 41.4499ZM39.6714 32.3587C38.4802 32.3587 37.3623 32.795 36.5009 33.6151C35.6579 34.4178 35.1997 35.4822 35.2181 36.5815V36.5989C35.2181 37.7331 35.6762 38.7976 36.5193 39.6002C37.3623 40.4029 38.4802 40.8391 39.6714 40.8391C42.1272 40.8391 44.1065 38.9372 44.1248 36.5989C44.1248 35.4647 43.6667 34.4003 42.8236 33.5976C41.9806 32.795 40.8627 32.3587 39.6714 32.3587Z"/>
        </mask>
        <path fill-rule="evenodd" clip-rule="evenodd" d="M48.3033 30.9105C48.3033 31.7829 49.0363 32.4809 49.9527 32.4809C50.869 32.4809 51.6204 31.7829 51.6204 30.9105C51.6204 30.038 50.869 29.3226 49.9527 29.3226C49.0363 29.3226 48.3033 30.038 48.3033 30.9105ZM44.7479 41.4499C43.4468 42.6888 41.6507 43.4566 39.6715 43.4566C37.7472 43.4566 35.9511 42.7412 34.5766 41.4499C33.2205 40.1412 32.4691 38.4312 32.4691 36.599C32.4508 34.7843 33.2021 33.0742 34.5583 31.7655C35.9328 30.4568 37.7472 29.7414 39.6715 29.7414C41.5958 29.7414 43.4101 30.4568 44.7663 31.7481C46.1225 33.0568 46.8738 34.7843 46.8738 36.599C46.8555 38.501 46.0491 40.211 44.7479 41.4499ZM39.6714 32.3587C38.4802 32.3587 37.3623 32.795 36.5009 33.6151C35.6579 34.4178 35.1997 35.4822 35.2181 36.5815V36.5989C35.2181 37.7331 35.6762 38.7976 36.5193 39.6002C37.3623 40.4029 38.4802 40.8391 39.6714 40.8391C42.1272 40.8391 44.1065 38.9372 44.1248 36.5989C44.1248 35.4647 43.6667 34.4003 42.8236 33.5976C41.9806 32.795 40.8627 32.3587 39.6714 32.3587Z" fill="url(#paint2_linear_10676_87026)"/>
        <path d="M44.7479 41.4499L44.8859 41.5948L44.7479 41.4499ZM34.5766 41.4499L34.4378 41.5939L34.4397 41.5957L34.5766 41.4499ZM32.4691 36.599H32.6691L32.6691 36.597L32.4691 36.599ZM34.5583 31.7655L34.4204 31.6207L34.4194 31.6216L34.5583 31.7655ZM44.7663 31.7481L44.9052 31.6041L44.9042 31.6032L44.7663 31.7481ZM46.8738 36.599L47.0738 36.6009V36.599H46.8738ZM36.5009 33.6151L36.6388 33.7599L36.5009 33.6151ZM35.2181 36.5815H35.4181L35.418 36.5781L35.2181 36.5815ZM36.5193 39.6002L36.3813 39.7451L36.5193 39.6002ZM44.1248 36.5989L44.3248 36.6005V36.5989H44.1248ZM42.8236 33.5976L42.6857 33.7425L42.8236 33.5976ZM49.9527 32.2809C49.1374 32.2809 48.5033 31.6634 48.5033 30.9105H48.1033C48.1033 31.9025 48.9352 32.6809 49.9527 32.6809V32.2809ZM51.4204 30.9105C51.4204 31.6606 50.7709 32.2809 49.9527 32.2809V32.6809C50.9671 32.6809 51.8204 31.9053 51.8204 30.9105H51.4204ZM49.9527 29.5226C50.7679 29.5226 51.4204 30.1576 51.4204 30.9105H51.8204C51.8204 29.9184 50.9701 29.1226 49.9527 29.1226V29.5226ZM48.5033 30.9105C48.5033 30.1548 49.1404 29.5226 49.9527 29.5226V29.1226C48.9323 29.1226 48.1033 29.9212 48.1033 30.9105H48.5033ZM39.6715 43.6566C41.703 43.6566 43.5482 42.8684 44.8859 41.5948L44.61 41.3051C43.3454 42.5092 41.5985 43.2566 39.6715 43.2566V43.6566ZM34.4397 41.5957C35.8515 42.922 37.6965 43.6566 39.6715 43.6566V43.2566C37.7978 43.2566 36.0508 42.5604 34.7136 41.3042L34.4397 41.5957ZM32.2691 36.599C32.2691 38.4881 33.0445 40.2494 34.4378 41.5939L34.7155 41.306C33.3964 40.0331 32.6691 38.3742 32.6691 36.599H32.2691ZM34.4194 31.6216C33.0265 32.9658 32.2502 34.7276 32.2691 36.601L32.6691 36.597C32.6513 34.8409 33.3778 33.1826 34.6972 31.9094L34.4194 31.6216ZM39.6715 29.5414C37.6969 29.5414 35.8329 30.2758 34.4204 31.6207L34.6962 31.9104C36.0327 30.6378 37.7974 29.9414 39.6715 29.9414V29.5414ZM44.9042 31.6032C43.5098 30.2755 41.6456 29.5414 39.6715 29.5414V29.9414C41.5459 29.9414 43.3104 30.6381 44.6284 31.8929L44.9042 31.6032ZM47.0738 36.599C47.0738 34.7276 46.2986 32.9488 44.9052 31.6041L44.6274 31.892C45.9463 33.1647 46.6738 34.8409 46.6738 36.599H47.0738ZM44.8859 41.5948C46.224 40.3207 47.055 38.56 47.0738 36.6009L46.6739 36.5971C46.6561 38.442 45.8743 40.1013 44.61 41.3051L44.8859 41.5948ZM36.6388 33.7599C37.4621 32.9761 38.5303 32.5587 39.6714 32.5587V32.1587C38.4302 32.1587 37.2625 32.6138 36.363 33.4702L36.6388 33.7599ZM35.418 36.5781C35.4007 35.5379 35.8339 34.5263 36.6388 33.7599L36.363 33.4702C35.4819 34.3092 34.9988 35.4264 35.0181 36.5848L35.418 36.5781ZM35.4181 36.5989V36.5815H35.0181V36.5989H35.4181ZM36.6572 39.4554C35.8531 38.6898 35.4181 37.6774 35.4181 36.5989H35.0181C35.0181 37.7889 35.4994 38.9053 36.3813 39.7451L36.6572 39.4554ZM39.6714 40.6391C38.5296 40.6391 37.4617 40.2214 36.6572 39.4554L36.3813 39.7451C37.2629 40.5845 38.4308 41.0391 39.6714 41.0391V40.6391ZM43.9248 36.5974C43.9074 38.8186 42.0247 40.6391 39.6714 40.6391V41.0391C42.2298 41.0391 44.3056 39.0557 44.3248 36.6005L43.9248 36.5974ZM42.6857 33.7425C43.4898 34.5081 43.9248 35.5205 43.9248 36.5989H44.3248C44.3248 35.409 43.8435 34.2925 42.9615 33.4528L42.6857 33.7425ZM39.6714 32.5587C40.8132 32.5587 41.8812 32.9765 42.6857 33.7425L42.9615 33.4528C42.08 32.6134 40.9121 32.1587 39.6714 32.1587V32.5587Z" fill="url(#paint3_linear_10676_87026)" fill-opacity="0.5" mask="url(#path-5-inside-1_10676_87026)"/>
    </g>
    <path d="M54.1996 10H50.7391C50.5307 10 50.3441 10.1293 50.2709 10.3246L48.4015 15.3139C48.279 15.6407 48.5207 15.9893 48.8697 15.9893H50.7887C51.139 15.9893 51.3807 16.3402 51.2558 16.6675L50.5755 18.4507C50.3823 18.9573 51.0206 19.3662 51.4 18.9788L55.1706 15.1279C55.4805 14.8114 55.2563 14.2781 54.8134 14.2781H53.3177C52.9243 14.2781 52.685 13.8447 52.8946 13.5117L54.6227 10.7664C54.8323 10.4334 54.593 10 54.1996 10Z" fill="#FE6B01"/>
    <defs>
        <filter id="filter0_f_10676_87026" x="0.802734" y="0.691223" width="57.0566" height="53.2936" filterUnits="userSpaceOnUse" color-interpolation-filters="sRGB">
            <feFlood flood-opacity="0" result="BackgroundImageFix"/>
            <feBlend mode="normal" in="SourceGraphic" in2="BackgroundImageFix" result="shape"/>
            <feGaussianBlur stdDeviation="8.5" result="effect1_foregroundBlur_10676_87026"/>
        </filter>
        <filter id="filter1_b_10676_87026" x="5.3457" y="2.55609" width="68.6543" height="63.4439" filterUnits="userSpaceOnUse" color-interpolation-filters="sRGB">
            <feFlood flood-opacity="0" result="BackgroundImageFix"/>
            <feGaussianBlur in="BackgroundImage" stdDeviation="7.5"/>
            <feComposite in2="SourceAlpha" operator="in" result="effect1_backgroundBlur_10676_87026"/>
            <feBlend mode="normal" in="SourceGraphic" in2="effect1_backgroundBlur_10676_87026" result="shape"/>
        </filter>
        <filter id="filter2_bd_10676_87026" x="17.4688" y="14.3226" width="49.1523" height="44.134" filterUnits="userSpaceOnUse" color-interpolation-filters="sRGB">
            <feFlood flood-opacity="0" result="BackgroundImageFix"/>
            <feGaussianBlur in="BackgroundImage" stdDeviation="7.5"/>
            <feComposite in2="SourceAlpha" operator="in" result="effect1_backgroundBlur_10676_87026"/>
            <feColorMatrix in="SourceAlpha" type="matrix" values="0 0 0 0 0 0 0 0 0 0 0 0 0 0 0 0 0 0 127 0" result="hardAlpha"/>
            <feOffset dx="5" dy="5"/>
            <feGaussianBlur stdDeviation="5"/>
            <feColorMatrix type="matrix" values="0 0 0 0 1 0 0 0 0 0.447059 0 0 0 0 0.368627 0 0 0 0.5 0"/>
            <feBlend mode="normal" in2="effect1_backgroundBlur_10676_87026" result="effect2_dropShadow_10676_87026"/>
            <feBlend mode="normal" in="SourceGraphic" in2="effect2_dropShadow_10676_87026" result="shape"/>
        </filter>
        <linearGradient id="paint0_linear_10676_87026" x1="22.7842" y1="14.8362" x2="32.031" y2="39.5097" gradientUnits="userSpaceOnUse">
            <stop stop-color="#FE6B01"/>
            <stop offset="1" stop-color="#FF7B0D"/>
            <stop offset="1" stop-color="#FF710B"/>
        </linearGradient>
        <linearGradient id="paint1_linear_10676_87026" x1="27.1803" y1="22.2194" x2="54.8988" y2="52.8728" gradientUnits="userSpaceOnUse">
            <stop stop-color="white" stop-opacity="0.25"/>
            <stop offset="1" stop-color="white" stop-opacity="0.15"/>
        </linearGradient>
        <linearGradient id="paint2_linear_10676_87026" x1="50.2626" y1="31.8749" x2="28.9484" y2="32.8165" gradientUnits="userSpaceOnUse">
            <stop stop-color="white"/>
            <stop offset="1" stop-color="white" stop-opacity="0.2"/>
        </linearGradient>
        <linearGradient id="paint3_linear_10676_87026" x1="50.7998" y1="36.6886" x2="32.2071" y2="37.7381" gradientUnits="userSpaceOnUse">
            <stop stop-color="white"/>
            <stop offset="1" stop-color="white" stop-opacity="0"/>
        </linearGradient>
    </defs>
</svg>
