<svg width="57" height="57" viewBox="0 0 57 57" fill="none" xmlns="http://www.w3.org/2000/svg">
    <path d="M41.5402 12.7774L28.5395 9.10669C23.8238 7.77523 20.3383 9.90953 19.0706 14.895L14.7769 31.7801C13.4884 36.8472 15.5108 40.4666 20.2265 41.7981L33.2272 45.4688C38.0189 46.8217 41.4103 44.7309 42.6988 39.6637L46.9924 22.7786C48.2601 17.7932 46.3319 14.1303 41.5402 12.7774Z" fill="url(#paint0_linear_10676_87030)"/>
    <g opacity="0.5" filter="url(#filter0_f_10676_87030)">
        <path d="M38.1441 17.4012L29.2866 14.9003C26.0738 13.9932 23.6991 15.4473 22.8353 18.8439L19.9101 30.3479C19.0322 33.8002 20.4101 36.2661 23.6229 37.1733L32.4804 39.6742C35.7451 40.5959 38.0556 39.1714 38.9335 35.7191L41.8588 24.2152C42.7225 20.8185 41.4087 18.323 38.1441 17.4012Z" fill="#FE6B01"/>
    </g>
    <g filter="url(#filter1_b_10676_87030)">
        <mask id="path-3-outside-1_10676_87030" maskUnits="userSpaceOnUse" x="0" y="15.0596" width="39" height="41" fill="black">
            <rect fill="white" y="15.0596" width="39" height="41"/>
            <path d="M27.4965 16.0596H11.4766C5.21283 16.0596 1 20.6935 1 27.586V43.4931C1 50.3661 5.21283 55 11.4766 55H27.4965C33.7603 55 37.9546 50.3661 37.9546 43.4931V27.586C37.9546 20.6935 33.7603 16.0596 27.4965 16.0596Z"/>
        </mask>
        <path d="M27.4965 16.0596H11.4766C5.21283 16.0596 1 20.6935 1 27.586V43.4931C1 50.3661 5.21283 55 11.4766 55H27.4965C33.7603 55 37.9546 50.3661 37.9546 43.4931V27.586C37.9546 20.6935 33.7603 16.0596 27.4965 16.0596Z" fill="#FE6B01" fill-opacity="0.35"/>
        <path d="M27.4965 17.0596C28.0487 17.0596 28.4965 16.6119 28.4965 16.0596C28.4965 15.5073 28.0487 15.0596 27.4965 15.0596V17.0596ZM27.4965 15.0596C26.9442 15.0596 26.4965 15.5073 26.4965 16.0596C26.4965 16.6119 26.9442 17.0596 27.4965 17.0596V15.0596ZM27.4965 15.0596H11.4766V17.0596H27.4965V15.0596ZM11.4766 15.0596C8.08477 15.0596 5.1893 16.3214 3.14941 18.5655C1.1171 20.8013 0 23.9375 0 27.586H2C2 24.3421 2.98931 21.715 4.62937 19.9108C6.26184 18.1148 8.60469 17.0596 11.4766 17.0596V15.0596ZM0 27.586V43.4931H2V27.586H0ZM0 43.4931C0 47.1326 1.11751 50.2639 3.14981 52.497C5.1896 54.7383 8.08483 56 11.4766 56V54C8.60463 54 6.26154 52.9448 4.62896 51.1509C2.9889 49.3488 2 46.7266 2 43.4931H0ZM11.4766 56H27.4965V54H11.4766V56ZM27.4965 56C30.8885 56 33.7796 54.7382 35.8149 52.4961C37.8424 50.2626 38.9546 47.1315 38.9546 43.4931H36.9546C36.9546 46.7278 35.9696 49.3501 34.334 51.1518C32.7062 52.945 30.3682 54 27.4965 54V56ZM38.9546 43.4931V27.586H36.9546V43.4931H38.9546ZM38.9546 27.586C38.9546 23.9386 37.8428 20.8026 35.8153 18.5664C33.7799 16.3216 30.8886 15.0596 27.4965 15.0596V17.0596C30.3682 17.0596 32.7059 18.1146 34.3336 19.9098C35.9692 21.7137 36.9546 24.3409 36.9546 27.586H38.9546Z" fill="url(#paint1_linear_10676_87030)" mask="url(#path-3-outside-1_10676_87030)"/>
    </g>
    <g filter="url(#filter2_bd_10676_87030)">
        <mask id="path-5-inside-2_10676_87030" fill="white">
            <path d="M17.2836 41.8537C16.8697 41.8537 16.4558 41.6882 16.1399 41.3552L11.7552 36.7349C11.1233 36.0691 11.1233 34.9904 11.7552 34.3265C12.3871 33.6606 13.4089 33.6586 14.0408 34.3245L17.2836 37.7415L24.911 29.7042C25.543 29.0384 26.5648 29.0384 27.1967 29.7042C27.8286 30.3701 27.8286 31.4488 27.1967 32.1147L18.4273 41.3552C18.1114 41.6882 17.6975 41.8537 17.2836 41.8537Z"/>
        </mask>
        <path d="M17.2836 41.8537C16.8697 41.8537 16.4558 41.6882 16.1399 41.3552L11.7552 36.7349C11.1233 36.0691 11.1233 34.9904 11.7552 34.3265C12.3871 33.6606 13.4089 33.6586 14.0408 34.3245L17.2836 37.7415L24.911 29.7042C25.543 29.0384 26.5648 29.0384 27.1967 29.7042C27.8286 30.3701 27.8286 31.4488 27.1967 32.1147L18.4273 41.3552C18.1114 41.6882 17.6975 41.8537 17.2836 41.8537Z" fill="url(#paint2_linear_10676_87030)"/>
        <path d="M11.7552 34.3265L11.9001 34.4644L11.9003 34.4641L11.7552 34.3265ZM17.2836 37.7415L17.1385 37.8792L17.2836 38.0321L17.4287 37.8792L17.2836 37.7415ZM27.1967 32.1147L27.0516 31.977L27.1967 32.1147ZM18.4273 41.3552L18.5724 41.4929L18.4273 41.3552ZM17.2836 41.6537C16.9237 41.6537 16.5626 41.5101 16.2849 41.2175L15.9948 41.4929C16.3491 41.8662 16.8157 42.0537 17.2836 42.0537V41.6537ZM16.2849 41.2175L11.9003 36.5973L11.6101 36.8726L15.9948 41.4929L16.2849 41.2175ZM11.9003 36.5973C11.3415 36.0084 11.3418 35.0509 11.9001 34.4644L11.6103 34.1886C10.9048 34.9299 10.9051 36.1297 11.6101 36.8726L11.9003 36.5973ZM11.9003 34.4641C12.4536 33.881 13.343 33.8797 13.8958 34.4622L14.1859 34.1868C13.4748 33.4375 12.3206 33.4401 11.6101 34.1888L11.9003 34.4641ZM13.8958 34.4622L17.1385 37.8792L17.4287 37.6039L14.1859 34.1868L13.8958 34.4622ZM17.4287 37.8792L25.0561 29.8419L24.766 29.5666L17.1385 37.6039L17.4287 37.8792ZM25.0561 29.8419C25.6092 29.2591 26.4985 29.2591 27.0516 29.8419L27.3418 29.5666C26.631 28.8176 25.4768 28.8176 24.766 29.5666L25.0561 29.8419ZM27.0516 29.8419C27.6103 30.4306 27.6103 31.3883 27.0516 31.977L27.3418 32.2523C28.0469 31.5093 28.0469 30.3096 27.3418 29.5666L27.0516 29.8419ZM27.0516 31.977L18.2823 41.2175L18.5724 41.4929L27.3418 32.2523L27.0516 31.977ZM18.2823 41.2175C18.0046 41.5101 17.6435 41.6537 17.2836 41.6537V42.0537C17.7515 42.0537 18.2181 41.8662 18.5724 41.4929L18.2823 41.2175Z" fill="url(#paint3_linear_10676_87030)" fill-opacity="0.5" mask="url(#path-5-inside-2_10676_87030)"/>
    </g>
    <defs>
        <filter id="filter0_f_10676_87030" x="5.65039" y="0.635925" width="50.4668" height="53.3123" filterUnits="userSpaceOnUse" color-interpolation-filters="sRGB">
            <feFlood flood-opacity="0" result="BackgroundImageFix"/>
            <feBlend mode="normal" in="SourceGraphic" in2="BackgroundImageFix" result="shape"/>
            <feGaussianBlur stdDeviation="7" result="effect1_foregroundBlur_10676_87030"/>
        </filter>
        <filter id="filter1_b_10676_87030" x="-24" y="-8.94037" width="86.9551" height="88.9404" filterUnits="userSpaceOnUse" color-interpolation-filters="sRGB">
            <feFlood flood-opacity="0" result="BackgroundImageFix"/>
            <feGaussianBlur in="BackgroundImage" stdDeviation="12"/>
            <feComposite in2="SourceAlpha" operator="in" result="effect1_backgroundBlur_10676_87030"/>
            <feBlend mode="normal" in="SourceGraphic" in2="effect1_backgroundBlur_10676_87030" result="shape"/>
        </filter>
        <filter id="filter2_bd_10676_87030" x="-3.71875" y="14.2048" width="46.3887" height="42.6488" filterUnits="userSpaceOnUse" color-interpolation-filters="sRGB">
            <feFlood flood-opacity="0" result="BackgroundImageFix"/>
            <feGaussianBlur in="BackgroundImage" stdDeviation="7.5"/>
            <feComposite in2="SourceAlpha" operator="in" result="effect1_backgroundBlur_10676_87030"/>
            <feColorMatrix in="SourceAlpha" type="matrix" values="0 0 0 0 0 0 0 0 0 0 0 0 0 0 0 0 0 0 127 0" result="hardAlpha"/>
            <feOffset dx="5" dy="5"/>
            <feGaussianBlur stdDeviation="5"/>
            <feColorMatrix type="matrix" values="0 0 0 0 0.454902 0 0 0 0 0.870588 0 0 0 0 0.376471 0 0 0 0.5 0"/>
            <feBlend mode="normal" in2="effect1_backgroundBlur_10676_87030" result="effect2_dropShadow_10676_87030"/>
            <feBlend mode="normal" in="SourceGraphic" in2="effect2_dropShadow_10676_87030" result="shape"/>
        </filter>
        <linearGradient id="paint0_linear_10676_87030" x1="35.039" y1="10.9418" x2="25.8764" y2="43.3933" gradientUnits="userSpaceOnUse">
            <stop stop-color="#FE6B01"/>
            <stop offset="1" stop-color="#FF7B0D"/>
            <stop offset="1" stop-color="#FF710B"/>
        </linearGradient>
        <linearGradient id="paint1_linear_10676_87030" x1="6.88257" y1="20.5962" x2="31.9648" y2="50.077" gradientUnits="userSpaceOnUse">
            <stop stop-color="white" stop-opacity="0.25"/>
            <stop offset="1" stop-color="white" stop-opacity="0"/>
        </linearGradient>
        <linearGradient id="paint2_linear_10676_87030" x1="26.5086" y1="31.489" x2="8.26557" y2="32.2597" gradientUnits="userSpaceOnUse">
            <stop stop-color="white"/>
            <stop offset="1" stop-color="white" stop-opacity="0.2"/>
        </linearGradient>
        <linearGradient id="paint3_linear_10676_87030" x1="13.0467" y1="33.4479" x2="26.9633" y2="33.5474" gradientUnits="userSpaceOnUse">
            <stop stop-color="white"/>
            <stop offset="1" stop-color="white" stop-opacity="0"/>
        </linearGradient>
    </defs>
</svg>
