<svg width="254" height="116" viewBox="0 0 254 116" fill="none" xmlns="http://www.w3.org/2000/svg">
    <rect width="254" height="116" rx="24" fill="white"/>
    <path d="M53.6416 50.8137C53.6416 54.5766 50.5879 57.627 46.8208 57.627C43.0538 57.627 40 54.5766 40 50.8137C40 47.0509 43.0538 44.0005 46.8208 44.0005C50.5879 44.0005 53.6416 47.0509 53.6416 50.8137ZM43.4104 50.8137C43.4104 52.6952 44.9373 54.2204 46.8208 54.2204C48.7043 54.2204 50.2312 52.6952 50.2312 50.8137C50.2312 48.9323 48.7043 47.4071 46.8208 47.4071C44.9373 47.4071 43.4104 48.9323 43.4104 50.8137Z" fill="black"/>
    <path d="M69.4532 50.8132C69.4532 54.5761 66.3994 57.6265 62.6323 57.6265C58.8653 57.6265 55.8115 54.5761 55.8115 50.8132C55.8115 47.0504 58.8653 44 62.6323 44C66.3994 44 69.4532 47.0504 69.4532 50.8132ZM59.2219 50.8132C59.2219 52.6947 60.7488 54.2199 62.6323 54.2199C64.5159 54.2199 66.0428 52.6947 66.0428 50.8132C66.0428 48.9318 64.5159 47.4066 62.6323 47.4066C60.7488 47.4066 59.2219 48.9318 59.2219 50.8132Z" fill="black"/>
    <rect x="40.3103" y="58.8655" width="13.3316" height="13.3168" rx="4.66864" fill="#050505"/>
    <path d="M68.8339 70.061V60.6763C68.8339 59.1017 67.2874 58.0776 65.9731 58.7818L57.215 63.4741C55.7581 64.2547 55.7581 66.4826 57.215 67.2632L65.9731 71.9556C67.2874 72.6597 68.8339 71.6356 68.8339 70.061Z" fill="#FE6B01"/>
    <path d="M96.3585 65.2123H94.6395C93.0424 65.2123 91.5367 64.4672 90.5678 63.1975L85.4176 56.4478V65.2123H81.726V46.5077H85.4176V54.7644L90.2998 48.4855C91.2701 47.2376 92.7623 46.5077 94.343 46.5077H96.091L89.1626 55.5928L96.3585 65.2123Z" fill="black"/>
    <path d="M100.538 50.2486C99.9672 50.2486 99.4678 50.0437 99.0398 49.634C98.6297 49.2065 98.4246 48.7077 98.4246 48.1377C98.4246 47.5676 98.6297 47.0688 99.0398 46.6413C99.4678 46.2138 99.9672 46 100.538 46C101.126 46 101.626 46.2138 102.036 46.6413C102.464 47.0688 102.678 47.5676 102.678 48.1377C102.678 48.7077 102.464 49.2065 102.036 49.634C101.626 50.0437 101.126 50.2486 100.538 50.2486ZM98.8258 65.2123V51.8519H102.277V65.2123H98.8258Z" fill="black"/>
    <path d="M113.674 51.4778C115.137 51.4778 116.34 51.9676 117.286 52.9474C118.249 53.9272 118.73 55.281 118.73 57.009V65.2123H115.279V57.4365C115.279 56.5458 115.039 55.8689 114.557 55.4057C114.076 54.9248 113.434 54.6843 112.631 54.6843C111.739 54.6843 111.026 54.9604 110.491 55.5126C109.956 56.0648 109.688 56.8932 109.688 57.9976V65.2123H106.238V51.8519H108.192C109.018 51.8519 109.688 52.5218 109.688 53.3482V53.3482C110.527 52.1013 111.855 51.4778 113.674 51.4778Z" fill="black"/>
    <path d="M133.875 63.5556C132.502 64.9094 130.825 65.5864 128.846 65.5864C126.866 65.5864 125.19 64.9094 123.817 63.5556C122.461 62.1839 121.784 60.5094 121.784 58.5321C121.784 56.5547 122.461 54.8891 123.817 53.5353C125.19 52.1636 126.866 51.4778 128.846 51.4778C130.825 51.4778 132.502 52.1636 133.875 53.5353C135.248 54.8891 135.935 56.5547 135.935 58.5321C135.935 60.5094 135.248 62.1839 133.875 63.5556ZM126.251 61.1774C126.946 61.8722 127.811 62.2195 128.846 62.2195C129.88 62.2195 130.745 61.8722 131.441 61.1774C132.136 60.4827 132.484 59.6009 132.484 58.5321C132.484 57.4632 132.136 56.5814 131.441 55.8867C130.745 55.192 129.88 54.8446 128.846 54.8446C127.811 54.8446 126.946 55.192 126.251 55.8867C125.573 56.5814 125.234 57.4632 125.234 58.5321C125.234 59.6009 125.573 60.4827 126.251 61.1774Z" fill="black"/>
    <path d="M142.061 55.6462C142.061 56.0025 142.293 56.2964 142.756 56.528C143.238 56.7418 143.817 56.9377 144.495 57.1159C145.173 57.2762 145.85 57.4899 146.528 57.7572C147.206 58.0065 147.776 58.4341 148.24 59.0398C148.722 59.6454 148.962 60.4025 148.962 61.311C148.962 62.6827 148.445 63.7426 147.411 64.4908C146.394 65.2212 145.119 65.5864 143.586 65.5864C140.839 65.5864 138.967 64.5264 137.968 62.4066L140.964 60.7232C141.356 61.8811 142.23 62.46 143.586 62.46C144.816 62.46 145.431 62.077 145.431 61.311C145.431 60.9547 145.191 60.6697 144.709 60.456C144.245 60.2244 143.675 60.0195 142.997 59.8414C142.319 59.6632 141.642 59.4406 140.964 59.1734C140.286 58.9061 139.707 58.4875 139.225 57.9175C138.762 57.3296 138.53 56.5993 138.53 55.7264C138.53 54.4081 139.011 53.3749 139.974 52.6268C140.955 51.8608 142.168 51.4778 143.612 51.4778C144.7 51.4778 145.69 51.7272 146.582 52.2259C147.473 52.7069 148.178 53.4017 148.695 54.3102L145.752 55.9134C145.324 55.0049 144.611 54.5507 143.612 54.5507C143.166 54.5507 142.792 54.6486 142.489 54.8446C142.203 55.0405 142.061 55.3077 142.061 55.6462Z" fill="black"/>
    <path d="M158.168 65.5864C156.153 65.5864 154.467 64.9094 153.112 63.5556C151.775 62.2017 151.106 60.5272 151.106 58.5321C151.106 56.5369 151.775 54.8624 153.112 53.5085C154.467 52.1547 156.153 51.4778 158.168 51.4778C159.47 51.4778 160.656 51.7895 161.726 52.413C162.796 53.0365 163.607 53.8737 164.16 54.9247L161.191 56.6616C160.923 56.1094 160.513 55.6729 159.96 55.3523C159.425 55.0316 158.819 54.8713 158.141 54.8713C157.107 54.8713 156.251 55.2187 155.573 55.9134C154.895 56.5903 154.557 57.4632 154.557 58.5321C154.557 59.5831 154.895 60.456 155.573 61.1507C156.251 61.8276 157.107 62.1661 158.141 62.1661C158.837 62.1661 159.452 62.0147 159.987 61.7118C160.54 61.3912 160.95 60.9547 161.217 60.4025L164.214 62.1126C163.625 63.1637 162.796 64.0098 161.726 64.6511C160.656 65.2746 159.47 65.5864 158.168 65.5864Z" fill="black"/>
    <path d="M178.028 63.5556C176.655 64.9094 174.978 65.5864 172.999 65.5864C171.019 65.5864 169.343 64.9094 167.97 63.5556C166.614 62.1839 165.937 60.5094 165.937 58.5321C165.937 56.5547 166.614 54.8891 167.97 53.5353C169.343 52.1636 171.019 51.4778 172.999 51.4778C174.978 51.4778 176.655 52.1636 178.028 53.5353C179.401 54.8891 180.088 56.5547 180.088 58.5321C180.088 60.5094 179.401 62.1839 178.028 63.5556ZM170.404 61.1774C171.099 61.8722 171.964 62.2195 172.999 62.2195C174.033 62.2195 174.898 61.8722 175.594 61.1774C176.289 60.4827 176.637 59.6009 176.637 58.5321C176.637 57.4632 176.289 56.5814 175.594 55.8867C174.898 55.192 174.033 54.8446 172.999 54.8446C171.964 54.8446 171.099 55.192 170.404 55.8867C169.726 56.5814 169.387 57.4632 169.387 58.5321C169.387 59.6009 169.726 60.4827 170.404 61.1774Z" fill="black"/>
    <path d="M191.102 51.4778C192.903 51.4778 194.437 52.1636 195.703 53.5353C196.987 54.8891 197.629 56.5547 197.629 58.5321C197.629 60.5094 196.987 62.1839 195.703 63.5556C194.437 64.9094 192.903 65.5864 191.102 65.5864C189.23 65.5864 187.785 64.9361 186.769 63.6357V67.1056C186.769 69.0114 185.224 70.5564 183.318 70.5564V70.5564V51.8519H186.769V53.4284C187.785 52.128 189.23 51.4778 191.102 51.4778ZM187.812 61.2576C188.507 61.9523 189.39 62.2997 190.46 62.2997C191.53 62.2997 192.413 61.9523 193.108 61.2576C193.822 60.545 194.178 59.6365 194.178 58.5321C194.178 57.4276 193.822 56.528 193.108 55.8333C192.413 55.1207 191.53 54.7644 190.46 54.7644C189.39 54.7644 188.507 55.1207 187.812 55.8333C187.116 56.528 186.769 57.4276 186.769 58.5321C186.769 59.6365 187.116 60.545 187.812 61.2576Z" fill="black"/>
    <path d="M203.781 59.9483C204.245 61.6228 205.502 62.46 207.553 62.46C208.873 62.46 209.872 62.0147 210.549 61.124L213.331 62.7272C212.012 64.6333 210.068 65.5864 207.5 65.5864C205.288 65.5864 203.514 64.9183 202.176 63.5823C200.839 62.2462 200.17 60.5628 200.17 58.5321C200.17 56.5191 200.83 54.8446 202.15 53.5085C203.469 52.1547 205.163 51.4778 207.232 51.4778C209.194 51.4778 210.808 52.1547 212.074 53.5085C213.358 54.8624 214 56.5369 214 58.5321C214 58.9774 213.955 59.4495 213.866 59.9483H203.781ZM203.728 57.2762H210.549C210.353 56.3677 209.943 55.6907 209.319 55.2454C208.712 54.8001 208.017 54.5774 207.232 54.5774C206.305 54.5774 205.538 54.8179 204.932 55.2988C204.325 55.762 203.924 56.4211 203.728 57.2762Z" fill="black"/>
</svg>
