<svg width="209" height="175" viewBox="0 0 209 175" fill="none" xmlns="http://www.w3.org/2000/svg">
    <path opacity="0.2" d="M95.0372 158C138.668 158 174.037 122.631 174.037 79.0001C174.037 35.3695 138.668 0 95.0372 0C51.4066 0 16.0371 35.3695 16.0371 79.0001C16.0371 122.631 51.4066 158 95.0372 158Z" fill="#13EC50"/>
    <g filter="url(#filter0_d_10432_117589)">
        <rect x="54.877" y="22.7502" width="81.987" height="102.061" rx="16" fill="url(#paint0_linear_10432_117589)"/>
    </g>
    <rect x="62.1172" y="35.9172" width="50" height="1.53168" rx="0.765842" fill="#13EC50"/>
    <rect x="62.1172" y="55.449" width="65.8334" height="1.53168" rx="0.765842" fill="#D5D5D5"/>
    <rect x="62.1172" y="74.9806" width="65.8334" height="1.53168" rx="0.765842" fill="#D5D5D5"/>
    <rect x="62.1172" y="94.5123" width="65.8334" height="1.53168" rx="0.765842" fill="#D5D5D5"/>
    <rect x="62.1172" y="114.044" width="65.8334" height="1.53168" rx="0.765842" fill="#D5D5D5"/>
    <g filter="url(#filter1_d_10432_117589)">
        <path d="M185.986 11.4707H146.433C144.59 11.4707 143.096 13.0431 143.096 14.9828V34.548C143.096 36.4877 144.59 38.0601 146.433 38.0601H185.986C187.829 38.0601 189.323 36.4877 189.323 34.548V14.9828C189.323 13.0431 187.829 11.4707 185.986 11.4707Z" fill="white"/>
    </g>
    <path d="M152.971 28.9674C155.153 28.9674 156.921 27.1989 156.921 25.0174C156.921 22.8359 155.153 21.0674 152.971 21.0674C150.79 21.0674 149.021 22.8359 149.021 25.0174C149.021 27.1989 150.79 28.9674 152.971 28.9674Z" fill="#15D14A"/>
    <rect x="162.186" y="21.0674" width="21.0667" height="7.90001" rx="3.95" fill="#15D14A"/>
    <path fill-rule="evenodd" clip-rule="evenodd" d="M118.154 129.403C126.633 129.403 134.514 126.838 141.062 122.441L167.856 148.019L177.574 136.745L151.718 112.063C156.492 105.343 159.3 97.1279 159.3 88.257C159.3 65.5327 140.878 47.1111 118.154 47.1111C95.4294 47.1111 77.0078 65.5327 77.0078 88.257C77.0078 110.981 95.4294 129.403 118.154 129.403ZM153.249 88.2574C153.249 107.496 137.653 123.092 118.415 123.092C99.1761 123.092 83.5801 107.496 83.5801 88.2574C83.5801 69.0188 99.1761 53.4229 118.415 53.4229C137.653 53.4229 153.249 69.0188 153.249 88.2574Z" fill="#CCC6D9"/>
    <g filter="url(#filter2_b_10432_117589)">
        <path d="M118.409 123.766C138.224 123.766 154.288 107.85 154.288 88.2161C154.288 68.5823 138.224 52.666 118.409 52.666C98.593 52.666 82.5293 68.5823 82.5293 88.2161C82.5293 107.85 98.593 123.766 118.409 123.766Z" fill="white" fill-opacity="0.3"/>
    </g>
    <path d="M124.614 88.2154L133.297 79.5663C134.11 78.7107 134.556 77.5735 134.539 76.3964C134.523 75.2193 134.045 74.0952 133.207 73.2628C132.37 72.4304 131.239 71.9554 130.054 71.9387C128.87 71.922 127.726 72.365 126.865 73.1735L118.163 81.8226L109.48 73.1735C109.062 72.734 108.56 72.3822 108.003 72.139C107.446 71.8958 106.846 71.7661 106.237 71.7575C105.629 71.749 105.025 71.8617 104.462 72.0892C103.898 72.3166 103.386 72.6541 102.956 73.0816C102.526 73.5092 102.186 74.0181 101.957 74.5784C101.728 75.1386 101.615 75.7388 101.624 76.3434C101.632 76.948 101.763 77.5447 102.007 78.0983C102.252 78.6518 102.606 79.151 103.048 79.5663L111.745 88.2154L103.048 96.8646C102.606 97.2798 102.252 97.779 102.007 98.3326C101.763 98.8862 101.632 99.4829 101.624 100.087C101.615 100.692 101.728 101.292 101.957 101.852C102.186 102.413 102.526 102.922 102.956 103.349C103.386 103.777 103.898 104.114 104.462 104.342C105.025 104.569 105.629 104.682 106.237 104.673C106.846 104.665 107.446 104.535 108.003 104.292C108.56 104.049 109.062 103.697 109.48 103.257L118.182 94.6083L126.884 103.257C127.753 104.018 128.882 104.421 130.039 104.384C131.197 104.346 132.296 103.872 133.114 103.057C133.932 102.242 134.406 101.147 134.44 99.9967C134.474 98.8461 134.065 97.726 133.297 96.8646L124.614 88.2154Z" fill="#15D14A"/>
    <path d="M167.852 148.021L177.569 136.747L179.032 138.144C180.452 139.499 181.303 141.393 181.396 143.409C181.489 145.424 180.818 147.396 179.53 148.89C178.242 150.385 176.442 151.279 174.527 151.377C172.613 151.476 170.739 150.769 169.319 149.414L167.855 148.017L167.852 148.021Z" fill="#E1DCEB"/>
    <path fill-rule="evenodd" clip-rule="evenodd" d="M33.3619 40.9296C33.3495 39.9908 33.2317 39.0439 32.9961 38.0905C32.1701 34.7448 28.4849 32.5969 24.5625 32.0919C20.6417 31.5868 16.5644 32.7361 14.9929 35.6464C14.0941 37.3103 13.9701 38.7444 14.3374 39.9535C14.7031 41.1562 15.5709 42.1532 16.7487 42.9302C20.0326 45.0943 25.7837 45.5362 28.4074 44.6314C29.6209 44.2121 30.8063 43.7072 31.9609 43.1293C31.3007 46.912 28.8413 50.4957 25.559 53.7248C18.4255 60.7432 7.35585 66.0701 1.3274 68.0286C1.00351 68.1339 0.823728 68.4932 0.92446 68.8315C1.02519 69.1698 1.36923 69.3592 1.69312 69.254C7.8409 67.2566 19.1261 61.8164 26.4005 54.6588C30.1586 50.9619 32.8365 46.8003 33.2937 42.4252C41.7893 37.6842 48.7662 29.0829 54.7311 21.8444C54.9527 21.5773 54.9233 21.171 54.666 20.9395C54.4088 20.7097 54.0213 20.7388 53.7997 21.0075C48.0781 27.9498 41.4375 36.208 33.3619 40.9296ZM32.1268 41.6175C32.1733 40.5622 32.074 39.4906 31.8059 38.4094C31.0915 35.5136 27.8076 33.8011 24.4122 33.3641C22.3309 33.097 20.1907 33.3172 18.5124 34.1006C17.457 34.5927 16.5876 35.3065 16.0638 36.2776C15.3757 37.5515 15.2269 38.6409 15.5089 39.5651C15.791 40.4958 16.4915 41.2436 17.4043 41.8441C20.3969 43.8172 25.6334 44.2365 28.0215 43.4126C29.4302 42.927 30.7971 42.3216 32.1268 41.6175Z" fill="#15D14A"/>
    <circle cx="183.913" cy="102.041" r="3.95" fill="#13EC50"/>
    <path fill-rule="evenodd" clip-rule="evenodd" d="M34.7233 129.293C35.4282 129.029 36.17 128.678 36.742 128.169C37.4214 127.565 37.6977 126.787 37.8833 125.968C38.1215 124.916 38.2167 123.795 38.5056 122.741C38.6125 122.349 38.8183 122.201 38.9067 122.136C39.1299 121.97 39.3555 121.926 39.5678 121.942C39.8194 121.961 40.165 122.062 40.3923 122.505C40.4247 122.569 40.4668 122.666 40.4951 122.798C40.5158 122.896 40.5292 123.2 40.5511 123.325C40.6057 123.634 40.6515 123.942 40.6945 124.253C40.8375 125.286 40.9197 126.163 41.3714 127.112C41.9844 128.401 42.5986 129.189 43.4315 129.538C44.2369 129.876 45.1999 129.812 46.4303 129.548C46.5474 129.518 46.6632 129.492 46.7779 129.471C47.3203 129.372 47.8389 129.746 47.9455 130.315C48.052 130.883 47.7073 131.437 47.1697 131.562C47.0574 131.588 46.9468 131.613 46.8374 131.635C45.1748 132.069 43.25 133.615 42.1315 134.968C41.7867 135.386 41.2819 136.553 40.767 137.297C40.387 137.846 39.96 138.208 39.6014 138.336C39.3612 138.422 39.1586 138.409 38.9913 138.366C38.7482 138.302 38.5465 138.164 38.3917 137.943C38.3075 137.823 38.2293 137.661 38.192 137.455C38.1742 137.355 38.1721 137.103 38.1726 136.989C38.0676 136.609 37.9392 136.238 37.8456 135.855C37.6224 134.94 37.1844 134.361 36.6642 133.596C36.1777 132.88 35.6551 132.431 34.889 132.072C34.7893 132.046 33.9851 131.839 33.7012 131.72C33.2863 131.546 33.0886 131.253 33.0169 131.096C32.8949 130.829 32.8824 130.596 32.9067 130.402C32.9428 130.115 33.0651 129.869 33.2823 129.671C33.4168 129.548 33.6177 129.428 33.8867 129.369C34.0945 129.324 34.6459 129.297 34.7233 129.293ZM39.441 127.803C39.4783 127.89 39.518 127.978 39.5601 128.067C40.4579 129.954 41.4618 131.007 42.682 131.519L42.723 131.535C41.9066 132.173 41.1677 132.886 40.6029 133.569C40.3704 133.851 40.0625 134.435 39.7299 135.035C39.4276 134.001 38.9334 133.27 38.3119 132.356C37.8371 131.658 37.3396 131.132 36.7283 130.704C37.2027 130.448 37.6552 130.148 38.0494 129.797C38.7057 129.214 39.1396 128.538 39.441 127.803Z" fill="#13EC50"/>
    <defs>
        <filter id="filter0_d_10432_117589" x="24.877" y="12.7502" width="141.986" height="162.061" filterUnits="userSpaceOnUse" color-interpolation-filters="sRGB">
            <feFlood flood-opacity="0" result="BackgroundImageFix"/>
            <feColorMatrix in="SourceAlpha" type="matrix" values="0 0 0 0 0 0 0 0 0 0 0 0 0 0 0 0 0 0 127 0" result="hardAlpha"/>
            <feOffset dy="20"/>
            <feGaussianBlur stdDeviation="15"/>
            <feComposite in2="hardAlpha" operator="out"/>
            <feColorMatrix type="matrix" values="0 0 0 0 0.570833 0 0 0 0 0.570833 0 0 0 0 0.570833 0 0 0 0.19 0"/>
            <feBlend mode="normal" in2="BackgroundImageFix" result="effect1_dropShadow_10432_117589"/>
            <feBlend mode="normal" in="SourceGraphic" in2="effect1_dropShadow_10432_117589" result="shape"/>
        </filter>
        <filter id="filter1_d_10432_117589" x="136.096" y="2.4707" width="72.2285" height="52.5894" filterUnits="userSpaceOnUse" color-interpolation-filters="sRGB">
            <feFlood flood-opacity="0" result="BackgroundImageFix"/>
            <feColorMatrix in="SourceAlpha" type="matrix" values="0 0 0 0 0 0 0 0 0 0 0 0 0 0 0 0 0 0 127 0" result="hardAlpha"/>
            <feOffset dx="6" dy="4"/>
            <feGaussianBlur stdDeviation="6.5"/>
            <feComposite in2="hardAlpha" operator="out"/>
            <feColorMatrix type="matrix" values="0 0 0 0 0.104618 0 0 0 0 0.465612 0 0 0 0 0.545833 0 0 0 0.09 0"/>
            <feBlend mode="normal" in2="BackgroundImageFix" result="effect1_dropShadow_10432_117589"/>
            <feBlend mode="normal" in="SourceGraphic" in2="effect1_dropShadow_10432_117589" result="shape"/>
        </filter>
        <filter id="filter2_b_10432_117589" x="74.5293" y="44.666" width="87.7578" height="87.1001" filterUnits="userSpaceOnUse" color-interpolation-filters="sRGB">
            <feFlood flood-opacity="0" result="BackgroundImageFix"/>
            <feGaussianBlur in="BackgroundImage" stdDeviation="4"/>
            <feComposite in2="SourceAlpha" operator="in" result="effect1_backgroundBlur_10432_117589"/>
            <feBlend mode="normal" in="SourceGraphic" in2="effect1_backgroundBlur_10432_117589" result="shape"/>
        </filter>
        <linearGradient id="paint0_linear_10432_117589" x1="95.8704" y1="22.7502" x2="95.8704" y2="124.811" gradientUnits="userSpaceOnUse">
            <stop stop-color="white"/>
            <stop offset="0.71875" stop-color="#FAFAFA"/>
        </linearGradient>
    </defs>
</svg>
