<svg width="24" height="25" viewBox="0 0 24 25" fill="none" xmlns="http://www.w3.org/2000/svg">
    <path d="M4.55356 6.38979C4.74261 5.97891 5.16346 5.66736 5.47588 5.35479C6.37765 4.45288 7.87314 4.57639 8.61489 5.61392L9.35287 6.6464C9.94015 7.46816 9.84717 8.59391 9.13338 9.30777L9.07088 9.37029C8.68823 9.75293 8.49179 10.2788 8.71746 10.7708C9.00461 11.3964 9.62982 12.3886 10.9916 13.7508C12.3472 15.1069 13.3428 15.7391 13.9746 16.034C14.4765 16.268 15.0168 16.0708 15.4083 15.6791L15.4563 15.6312C16.1698 14.9174 17.2947 14.8246 18.1159 15.4109L19.1354 16.1394C20.1736 16.881 20.2973 18.3778 19.3953 19.2802C19.0826 19.593 18.7706 20.0146 18.3587 20.2023C17.3383 20.6681 13.0509 22.1347 7.83042 16.9128C2.60599 11.6868 4.08661 7.40413 4.55356 6.38979Z" stroke="#0F0E0E" stroke-width="2"/>
</svg>
