<svg width="25" height="24" viewBox="0 0 25 24" fill="none" xmlns="http://www.w3.org/2000/svg">
    <g clip-path="url(#clip0_10432_134371)">
        <path d="M12.8574 0C6.22995 0 0.857422 5.37253 0.857422 12C0.857422 18.6275 6.22995 24 12.8574 24C19.4849 24 24.8574 18.6275 24.8574 12C24.8574 5.37253 19.4849 0 12.8574 0Z" fill="#0F0E0E"/>
        <path d="M15.9094 13.4C15.9654 12.938 16.0074 12.476 16.0074 12C16.0074 11.524 15.9654 11.062 15.9094 10.6H18.2754C18.3874 11.048 18.4574 11.517 18.4574 12C18.4574 12.483 18.3874 12.952 18.2754 13.4H15.9094ZM14.6704 17.292C15.0904 16.515 15.4124 15.675 15.6364 14.8H17.7014C17.0232 15.9678 15.9473 16.8524 14.6704 17.292ZM14.4954 13.4H11.2194C11.1494 12.938 11.1074 12.476 11.1074 12C11.1074 11.524 11.1494 11.055 11.2194 10.6H14.4954C14.5584 11.055 14.6074 11.524 14.6074 12C14.6074 12.476 14.5584 12.938 14.4954 13.4ZM12.8574 17.572C12.2764 16.732 11.8074 15.801 11.5204 14.8H14.1944C13.9074 15.801 13.4384 16.732 12.8574 17.572ZM10.0574 9.2H8.01342C8.68462 8.02905 9.75978 7.14304 11.0374 6.708C10.6174 7.485 10.3024 8.325 10.0574 9.2ZM8.01342 14.8H10.0574C10.3024 15.675 10.6174 16.515 11.0374 17.292C9.76246 16.8522 8.68881 15.9674 8.01342 14.8ZM7.43942 13.4C7.32742 12.952 7.25742 12.483 7.25742 12C7.25742 11.517 7.32742 11.048 7.43942 10.6H9.80542C9.74942 11.062 9.70742 11.524 9.70742 12C9.70742 12.476 9.74942 12.938 9.80542 13.4H7.43942ZM12.8574 6.421C13.4384 7.261 13.9074 8.199 14.1944 9.2H11.5204C11.8074 8.199 12.2764 7.261 12.8574 6.421ZM17.7014 9.2H15.6364C15.4173 8.33302 15.0929 7.49613 14.6704 6.708C15.9584 7.149 17.0294 8.038 17.7014 9.2ZM12.8574 5C8.98642 5 5.85742 8.15 5.85742 12C5.85742 13.8565 6.59492 15.637 7.90767 16.9497C8.55768 17.5998 9.32936 18.1154 10.1786 18.4672C11.0279 18.8189 11.9382 19 12.8574 19C14.7139 19 16.4944 18.2625 17.8072 16.9497C19.1199 15.637 19.8574 13.8565 19.8574 12C19.8574 11.0807 19.6764 10.1705 19.3246 9.32122C18.9728 8.47194 18.4572 7.70026 17.8072 7.05025C17.1572 6.40024 16.3855 5.88463 15.5362 5.53284C14.6869 5.18106 13.7767 5 12.8574 5Z" fill="white"/>
    </g>
    <defs>
        <clipPath id="clip0_10432_134371">
            <rect width="24" height="24" fill="white" transform="translate(0.857422)"/>
        </clipPath>
    </defs>
</svg>
