<svg width="33" height="32" viewBox="0 0 33 32" fill="none" xmlns="http://www.w3.org/2000/svg">
    <g>
        <path d="M16.5 32C25.3366 32 32.5 24.8366 32.5 16C32.5 7.16344 25.3366 0 16.5 0C7.66344 0 0.5 7.16344 0.5 16C0.5 24.8366 7.66344 32 16.5 32Z" fill="#F2F2F2"/>
        <path d="M13.168 9.33366V19.3337C13.168 19.7757 13.3436 20.1996 13.6561 20.5122C13.9687 20.8247 14.3926 21.0003 14.8346 21.0003H21.5013C21.9433 21.0003 22.3673 20.8247 22.6798 20.5122C22.9924 20.1996 23.168 19.7757 23.168 19.3337V12.0353C23.1679 11.8133 23.1235 11.5935 23.0374 11.3889C22.9513 11.1842 22.8251 10.9989 22.6663 10.8437L19.9038 8.14199C19.5924 7.83754 19.1743 7.66705 18.7388 7.66699H14.8346C14.3926 7.66699 13.9687 7.84259 13.6561 8.15515C13.3436 8.46771 13.168 8.89163 13.168 9.33366V9.33366Z" stroke="#0F0E0E" stroke-width="1.5" stroke-linecap="round" stroke-linejoin="round"/>
        <path d="M19.834 21.0002V22.6668C19.834 23.1089 19.6584 23.5328 19.3458 23.8453C19.0333 24.1579 18.6093 24.3335 18.1673 24.3335H11.5007C11.0586 24.3335 10.6347 24.1579 10.3221 23.8453C10.0096 23.5328 9.83398 23.1089 9.83398 22.6668V13.5002C9.83398 13.0581 10.0096 12.6342 10.3221 12.3217C10.6347 12.0091 11.0586 11.8335 11.5007 11.8335H13.1673" stroke="#0F0E0E" stroke-width="1.5" stroke-linecap="round" stroke-linejoin="round"/>
    </g>
</svg>
